<svg width="375" height="282" viewBox="0 0 375 282" fill="none" xmlns="http://www.w3.org/2000/svg">
<path d="M54.058 113L54 168.861L321.942 169L322 113.138L54.058 113Z" stroke="url(#paint0_linear_339_4)" stroke-miterlimit="10"/>
<path d="M53.9403 113H-2V169H53.9403V113Z" stroke="url(#paint1_linear_339_4)" stroke-miterlimit="10"/>
<path d="M53.9998 113.06C53.9998 128.539 41.4625 141.03 25.9998 141.03C10.5372 141.03 -1.94043 128.479 -1.94043 113" stroke="url(#paint2_linear_339_4)" stroke-miterlimit="10"/>
<path d="M53.9403 225H-2V281H53.9403V225Z" stroke="url(#paint3_linear_339_4)" stroke-miterlimit="10"/>
<path d="M53.9998 225.06C53.9998 240.539 41.4625 253.03 25.9998 253.03C10.5372 253.03 -1.94043 240.479 -1.94043 225" stroke="url(#paint4_linear_339_4)" stroke-miterlimit="10"/>
<path d="M-1.93171 57L-1.97266 112.959L53.9592 113L54.0002 57.0409L-1.93171 57Z" stroke="url(#paint5_linear_339_4)" stroke-miterlimit="10"/>
<path d="M53.9915 93.4669L-1.94043 93.4078" stroke="url(#paint6_linear_339_4)" stroke-miterlimit="10"/>
<path d="M53.9915 65.4583H-1.94043" stroke="url(#paint7_linear_339_4)" stroke-miterlimit="10"/>
<path d="M32.9199 93.4675L32.979 57.0374" stroke="url(#paint8_linear_339_4)" stroke-miterlimit="10"/>
<path d="M43.4257 93.4676C49.195 93.4676 53.8719 88.7617 53.8719 82.9567C53.8719 77.1516 49.195 72.4457 43.4257 72.4457C37.6564 72.4457 32.9795 77.1516 32.9795 82.9567C32.9795 88.7617 37.6564 93.4676 43.4257 93.4676Z" stroke="url(#paint9_linear_339_4)" stroke-miterlimit="10"/>
<path d="M32.9797 57.0374C32.9797 76.2677 17.579 92.0341 -1.94043 93.4077" stroke="url(#paint10_linear_339_4)" stroke-miterlimit="10"/>
<path d="M-2 101.769L53.9916 101.828" stroke="url(#paint11_linear_339_4)" stroke-miterlimit="10"/>
<path d="M54.0406 57L54 112.959L109.916 113L109.957 57.0412L54.0406 57Z" stroke="url(#paint12_linear_339_4)" stroke-miterlimit="10"/>
<path d="M54.0244 79.3569L110 79.4166" stroke="url(#paint13_linear_339_4)" stroke-miterlimit="10"/>
<path d="M102.958 112.98L102.898 79.4165" stroke="url(#paint14_linear_339_4)" stroke-miterlimit="10"/>
<path d="M95.916 112.98V79.3569" stroke="url(#paint15_linear_339_4)" stroke-miterlimit="10"/>
<path d="M88.9346 112.98V79.3569" stroke="url(#paint16_linear_339_4)" stroke-miterlimit="10"/>
<path d="M81.9521 112.98V79.3569" stroke="url(#paint17_linear_339_4)" stroke-miterlimit="10"/>
<path d="M74.9697 112.98L75.029 79.3569" stroke="url(#paint18_linear_339_4)" stroke-miterlimit="10"/>
<path d="M64.4677 112.921C70.2353 112.921 74.9109 108.241 74.9109 102.469C74.9109 96.6973 70.2353 92.0181 64.4677 92.0181C58.7 92.0181 54.0244 96.6973 54.0244 102.469C54.0244 108.241 58.7 112.921 64.4677 112.921Z" stroke="url(#paint19_linear_339_4)" stroke-miterlimit="10"/>
<path d="M54.0406 169L54 224.959L109.916 225L109.957 169.041L54.0406 169Z" stroke="url(#paint20_linear_339_4)" stroke-miterlimit="10"/>
<path d="M54.0244 191.357L110 191.417" stroke="url(#paint21_linear_339_4)" stroke-miterlimit="10"/>
<path d="M102.958 224.98L102.898 191.417" stroke="url(#paint22_linear_339_4)" stroke-miterlimit="10"/>
<path d="M95.916 224.98V191.357" stroke="url(#paint23_linear_339_4)" stroke-miterlimit="10"/>
<path d="M88.9346 224.98V191.357" stroke="url(#paint24_linear_339_4)" stroke-miterlimit="10"/>
<path d="M81.9521 224.98V191.357" stroke="url(#paint25_linear_339_4)" stroke-miterlimit="10"/>
<path d="M74.9697 224.98L75.029 191.357" stroke="url(#paint26_linear_339_4)" stroke-miterlimit="10"/>
<path d="M64.4677 224.921C70.2353 224.921 74.9109 220.241 74.9109 214.469C74.9109 208.697 70.2353 204.018 64.4677 204.018C58.7 204.018 54.0244 208.697 54.0244 214.469C54.0244 220.241 58.7 224.921 64.4677 224.921Z" stroke="url(#paint27_linear_339_4)" stroke-miterlimit="10"/>
<path d="M322.041 225L322 280.959L377.916 281L377.957 225.041L322.041 225Z" stroke="url(#paint28_linear_339_4)" stroke-miterlimit="10"/>
<path d="M322.024 247.357L378 247.417" stroke="url(#paint29_linear_339_4)" stroke-miterlimit="10"/>
<path d="M370.958 280.98L370.898 247.417" stroke="url(#paint30_linear_339_4)" stroke-miterlimit="10"/>
<path d="M363.916 280.98V247.357" stroke="url(#paint31_linear_339_4)" stroke-miterlimit="10"/>
<path d="M356.935 280.98V247.357" stroke="url(#paint32_linear_339_4)" stroke-miterlimit="10"/>
<path d="M349.952 280.98V247.357" stroke="url(#paint33_linear_339_4)" stroke-miterlimit="10"/>
<path d="M342.97 280.98L343.029 247.357" stroke="url(#paint34_linear_339_4)" stroke-miterlimit="10"/>
<path d="M332.468 280.921C338.235 280.921 342.911 276.241 342.911 270.469C342.911 264.697 338.235 260.018 332.468 260.018C326.7 260.018 322.024 264.697 322.024 270.469C322.024 276.241 326.7 280.921 332.468 280.921Z" stroke="url(#paint35_linear_339_4)" stroke-miterlimit="10"/>
<path d="M322 168.971H377.971V113H322V168.971Z" stroke="url(#paint36_linear_339_4)" stroke-miterlimit="10"/>
<path d="M344.465 113.089V169" stroke="url(#paint37_linear_339_4)" stroke-miterlimit="10"/>
<path d="M378 162.018L344.465 161.959" stroke="url(#paint38_linear_339_4)" stroke-miterlimit="10"/>
<path d="M378 154.977H344.465" stroke="url(#paint39_linear_339_4)" stroke-miterlimit="10"/>
<path d="M378 147.936H344.465" stroke="url(#paint40_linear_339_4)" stroke-miterlimit="10"/>
<path d="M378 140.955H344.465" stroke="url(#paint41_linear_339_4)" stroke-miterlimit="10"/>
<path d="M378 134.033H344.465" stroke="url(#paint42_linear_339_4)" stroke-miterlimit="10"/>
<path d="M367.558 133.973C373.325 133.973 378 129.298 378 123.531C378 117.764 373.325 113.089 367.558 113.089C361.79 113.089 357.115 117.764 357.115 123.531C357.115 129.298 361.79 133.973 367.558 133.973Z" stroke="url(#paint43_linear_339_4)" stroke-miterlimit="10"/>
<path d="M377.569 56.5547V1L322 1V56.5547L377.569 56.5547Z" stroke="url(#paint44_linear_339_4)" stroke-miterlimit="10"/>
<path d="M322.088 34.2854H377.598" stroke="url(#paint45_linear_339_4)" stroke-miterlimit="10"/>
<path d="M370.667 1L370.607 34.2854" stroke="url(#paint46_linear_339_4)" stroke-miterlimit="10"/>
<path d="M363.676 1V34.2854" stroke="url(#paint47_linear_339_4)" stroke-miterlimit="10"/>
<path d="M356.686 1V34.2854" stroke="url(#paint48_linear_339_4)" stroke-miterlimit="10"/>
<path d="M349.754 1V34.2854" stroke="url(#paint49_linear_339_4)" stroke-miterlimit="10"/>
<path d="M342.882 1V34.2854" stroke="url(#paint50_linear_339_4)" stroke-miterlimit="10"/>
<path d="M332.455 21.7294C338.181 21.7294 342.823 17.0889 342.823 11.3647C342.823 5.64042 338.181 1 332.455 1C326.73 1 322.088 5.64042 322.088 11.3647C322.088 17.0889 326.73 21.7294 332.455 21.7294Z" stroke="url(#paint51_linear_339_4)" stroke-miterlimit="10"/>
<path d="M266.018 90.6322H322.017" stroke="url(#paint52_linear_339_4)" stroke-miterlimit="10"/>
<path d="M277.241 90.5724C283.407 90.5724 288.405 85.5687 288.405 79.3963C288.405 73.2239 283.407 68.2202 277.241 68.2202C271.075 68.2202 266.077 73.2239 266.077 79.3963C266.077 85.5687 271.075 90.5724 277.241 90.5724Z" stroke="url(#paint53_linear_339_4)" stroke-miterlimit="10"/>
<path d="M288.405 57.0441C288.405 75.631 303.39 90.6321 321.957 90.6321" stroke="url(#paint54_linear_339_4)" stroke-miterlimit="10"/>
<path d="M321.958 113V57L266.018 57V113H321.958Z" stroke="url(#paint55_linear_339_4)" stroke-miterlimit="10"/>
<path d="M288.405 112.984V57.0441" stroke="url(#paint56_linear_339_4)" stroke-miterlimit="10"/>
<path d="M266.018 202.632H322.017" stroke="url(#paint57_linear_339_4)" stroke-miterlimit="10"/>
<path d="M277.241 202.572C283.407 202.572 288.405 197.569 288.405 191.396C288.405 185.224 283.407 180.22 277.241 180.22C271.075 180.22 266.077 185.224 266.077 191.396C266.077 197.569 271.075 202.572 277.241 202.572Z" stroke="url(#paint58_linear_339_4)" stroke-miterlimit="10"/>
<path d="M288.405 169.044C288.405 187.631 303.39 202.632 321.957 202.632" stroke="url(#paint59_linear_339_4)" stroke-miterlimit="10"/>
<path d="M321.958 225V169H266.018V225H321.958Z" stroke="url(#paint60_linear_339_4)" stroke-miterlimit="10"/>
<path d="M288.405 224.984V169.044" stroke="url(#paint61_linear_339_4)" stroke-miterlimit="10"/>
<path d="M20.3682 169L20.3682 225" stroke="url(#paint62_linear_339_4)" stroke-miterlimit="10"/>
<path d="M20.4271 180.224C20.4271 186.39 25.4308 191.388 31.6032 191.388C37.7756 191.388 42.7793 186.39 42.7793 180.224C42.7793 174.058 37.7756 169.06 31.6032 169.06C25.4308 169.06 20.4271 174.058 20.4271 180.224Z" stroke="url(#paint63_linear_339_4)" stroke-miterlimit="10"/>
<path d="M53.9561 191.388C35.3691 191.388 20.368 206.373 20.368 224.94" stroke="url(#paint64_linear_339_4)" stroke-miterlimit="10"/>
<path d="M-2 224.94L54 224.94L54 169L-2 169L-2 224.94Z" stroke="url(#paint65_linear_339_4)" stroke-miterlimit="10"/>
<path d="M-1.98416 191.388L53.9561 191.388" stroke="url(#paint66_linear_339_4)" stroke-miterlimit="10"/>
<path d="M378 57.0598H322V113H378V57.0598Z" stroke="url(#paint67_linear_339_4)" stroke-miterlimit="10"/>
<path d="M378 57.0597C378 72.5224 365.449 85 349.97 85C334.491 85 322 72.4627 322 57" stroke="url(#paint68_linear_339_4)" stroke-miterlimit="10"/>
<path d="M377.94 225L377.94 169L322 169L322 225L377.94 225Z" stroke="url(#paint69_linear_339_4)" stroke-miterlimit="10"/>
<path d="M377.94 225C362.478 225 350 212.449 350 196.97C350 181.491 362.537 169 378 169" stroke="url(#paint70_linear_339_4)" stroke-miterlimit="10"/>
<path d="M53.9707 57L53.9707 1L-2.00031 1L-2.00031 57L53.9707 57Z" stroke="url(#paint71_linear_339_4)" stroke-miterlimit="10"/>
<path d="M-1.91211 34.5522H53.9993" stroke="url(#paint72_linear_339_4)" stroke-miterlimit="10"/>
<path d="M47.0173 1L46.958 34.5523" stroke="url(#paint73_linear_339_4)" stroke-miterlimit="10"/>
<path d="M39.9775 1V34.5523" stroke="url(#paint74_linear_339_4)" stroke-miterlimit="10"/>
<path d="M32.9355 1V34.5523" stroke="url(#paint75_linear_339_4)" stroke-miterlimit="10"/>
<path d="M25.9541 1V34.5523" stroke="url(#paint76_linear_339_4)" stroke-miterlimit="10"/>
<path d="M19.0322 1V34.5523" stroke="url(#paint77_linear_339_4)" stroke-miterlimit="10"/>
<path d="M8.53024 21.8955C14.2974 21.8955 18.9726 17.2179 18.9726 11.4478C18.9726 5.67762 14.2974 1 8.53024 1C2.76309 1 -1.91211 5.67762 -1.91211 11.4478C-1.91211 17.2179 2.76309 21.8955 8.53024 21.8955Z" stroke="url(#paint78_linear_339_4)" stroke-miterlimit="10"/>
<path d="M76.3385 125.75V127.055C79.6235 127.325 80.0285 127.505 80.0285 131.465V149.33C80.0285 153.065 79.6235 153.425 76.0685 153.695V155H88.5785V153.695C84.5735 153.425 84.2135 153.155 84.2135 149.375V142.445L87.4985 143.3C87.9935 143.345 88.8035 143.345 89.4785 143.255C93.9335 142.67 98.2985 139.88 98.2985 133.985C98.2985 131.06 97.1735 128.945 95.3285 127.595C93.5285 126.29 90.9635 125.75 87.7235 125.75H76.3385ZM84.2135 129.755C84.2135 128.585 84.3485 128.045 84.6635 127.775C84.9785 127.46 85.8335 127.235 87.0035 127.235C90.5585 127.235 93.5735 129.26 93.5735 134.165C93.5735 139.925 90.0185 141.41 87.3185 141.41C85.9685 141.41 84.7535 141.14 84.2135 140.915V129.755ZM105.748 131.015C107.098 131.015 108.178 129.89 108.178 128.585C108.178 127.145 107.098 126.065 105.793 126.065C104.443 126.065 103.318 127.145 103.318 128.585C103.318 129.89 104.443 131.015 105.748 131.015ZM111.148 155V153.785C108.268 153.515 107.998 153.245 107.998 150.185V134.66C105.928 135.47 103.633 136.055 101.293 136.415V137.54C103.858 137.945 104.038 138.125 104.038 140.96V150.185C104.038 153.245 103.723 153.515 100.933 153.785V155H111.148ZM133.353 155V153.785C130.788 153.425 130.113 152.975 128.493 150.455L124.083 143.75C125.613 141.545 126.693 139.97 127.638 138.845C129.213 137.045 129.798 136.775 132.498 136.505V135.29H124.263V136.505C126.198 136.73 126.468 137 125.703 138.35C124.938 139.7 124.083 141.095 123.183 142.4L120.618 138.395C119.808 137.135 119.988 136.775 121.833 136.505V135.29H112.563V136.505C115.038 136.82 115.578 137.18 116.928 139.34L120.843 145.55C119.538 147.53 118.323 149.33 117.063 150.815C115.353 153.02 114.768 153.425 112.068 153.785V155H120.483V153.785C118.233 153.425 118.098 152.975 118.953 151.49C119.808 150.005 120.753 148.34 121.743 146.9L124.893 151.94C125.658 153.155 125.298 153.515 123.453 153.785V155H133.353ZM149.996 150.095C148.376 151.58 146.666 152.3 144.866 152.3C141.716 152.3 138.341 149.78 138.251 143.885C143.471 143.705 149.096 143.255 149.816 143.165C150.716 142.985 150.896 142.58 150.896 141.68C150.941 138.125 147.881 134.75 144.056 134.75H144.011C141.716 134.75 139.286 135.965 137.396 138.035C135.551 140.015 134.381 142.805 134.381 145.955C134.381 151.04 137.621 155.54 143.246 155.54C144.731 155.54 147.881 154.73 150.716 151.085L149.996 150.095ZM143.021 136.415C145.361 136.415 146.801 138.62 146.756 140.96C146.756 141.635 146.486 141.86 145.721 141.86C143.246 141.95 140.906 141.995 138.521 141.995C139.106 138.35 141.041 136.415 142.976 136.415H143.021ZM162.769 155V153.785C159.889 153.515 159.529 153.245 159.529 150.275V123.05C157.864 123.59 154.939 124.355 152.554 124.625V125.705C155.344 125.975 155.614 126.11 155.614 129.08V150.275C155.614 153.245 155.254 153.47 152.419 153.785V155H162.769ZM196.988 152.66L195.593 152.525C193.883 152.345 193.613 152.12 193.613 149.735V123.05C191.813 123.635 188.708 124.31 186.278 124.625V125.75C189.383 126.02 189.653 126.155 189.653 128.99V135.2C188.618 134.84 187.448 134.75 186.863 134.75C180.563 134.75 175.163 139.7 175.163 145.91C175.163 152.255 179.978 155.54 183.623 155.54C184.163 155.54 185.243 155.315 186.908 154.325L189.653 152.66V155.54C192.443 154.595 195.953 154.01 196.988 153.83V152.66ZM189.653 151.22C188.573 151.985 187.133 152.615 185.648 152.615C182.903 152.615 179.618 150.095 179.618 144.695C179.618 138.125 183.353 136.46 185.288 136.46C186.863 136.46 188.618 137.225 189.653 138.755V151.22ZM200.177 123.095C199.322 123.095 198.197 123.68 198.197 124.895C198.197 125.525 198.512 125.885 198.782 125.93C200.357 126.2 201.662 127.19 201.662 128.81C201.662 130.61 200.312 131.735 198.107 132.68L198.557 133.94C201.527 133.175 204.632 131.15 204.632 127.82C204.632 124.85 202.202 123.095 200.222 123.095H200.177ZM221.318 125.12C211.733 125.12 206.063 132.635 206.063 140.645C206.063 149.285 212.543 155.675 220.823 155.675C229.103 155.675 235.943 149.735 235.943 140.015C235.943 131.015 229.103 125.12 221.363 125.12H221.318ZM220.418 126.74C226.223 126.74 230.903 131.825 230.903 141.23C230.903 149.825 226.628 154.01 221.768 154.01C215.513 154.01 211.103 147.755 211.103 139.475C211.103 131.15 215.513 126.74 220.373 126.74H220.418ZM261.588 152.75L260.418 152.66C258.708 152.525 258.348 152.21 258.348 149.915V134.975C257.628 135.11 256.458 135.335 255.153 135.47C253.803 135.605 252.273 135.74 251.013 135.785V136.91L252.588 137.18C254.028 137.405 254.388 137.675 254.388 140.015V150.59C252.948 151.985 251.418 152.615 249.843 152.615C247.908 152.615 246.018 151.535 246.018 147.71V141.59C246.018 138.62 246.063 136.46 246.198 134.975C245.343 135.11 244.038 135.335 242.778 135.47C241.518 135.605 240.348 135.74 239.358 135.785V136.91L240.618 137.18C241.743 137.405 242.103 137.675 242.103 140.015V148.88C242.103 153.605 244.578 155.54 247.728 155.54C248.943 155.54 249.978 155.135 251.283 154.37C252.498 153.65 253.398 152.93 254.388 152.165V155.27L254.703 155.54C255.648 155.27 256.818 154.955 258.033 154.64C259.293 154.325 260.553 154.055 261.588 153.92V152.75ZM270.64 139.52V134.66C268.345 135.56 266.275 136.1 263.98 136.46V137.495C266.455 137.9 266.68 138.035 266.68 140.915V150.32C266.68 153.245 266.365 153.515 263.62 153.785V155H274.33V153.785C270.865 153.515 270.64 153.245 270.64 150.32V142.04C271.585 139.655 272.935 138.485 274.015 138.485C274.78 138.485 275.32 138.755 275.995 139.385C276.265 139.655 276.67 139.745 277.21 139.52C278.155 139.07 278.785 138.125 278.785 137.09C278.785 135.965 277.705 134.75 276.085 134.75C274.015 134.75 272.125 137.135 270.73 139.52H270.64ZM290.27 134.75C285.995 134.75 280.235 138.17 280.235 145.595C280.235 150.545 283.88 155.54 290.225 155.54C294.815 155.54 300.08 152.075 300.08 144.785C300.08 139.295 295.94 134.75 290.315 134.75H290.27ZM289.73 136.28C293.465 136.28 295.49 140.42 295.49 145.865C295.49 152.12 293.285 154.01 290.72 154.01C287.12 154.01 284.825 149.78 284.825 144.11C284.825 138.98 287.12 136.28 289.685 136.28H289.73Z" fill="url(#paint79_linear_339_4)"/>
<defs>
<linearGradient id="paint0_linear_339_4" x1="187.917" y1="235.889" x2="188.015" y2="46.0884" gradientUnits="userSpaceOnUse">
<stop stop-color="#B28E3C"/>
<stop offset="0.1507" stop-color="#B28E3C"/>
<stop offset="0.4873" stop-color="#C39B30"/>
<stop offset="0.7517" stop-color="#B28E3C"/>
<stop offset="1" stop-color="#C08E21"/>
</linearGradient>
<linearGradient id="paint1_linear_339_4" x1="-2.59701" y1="141.029" x2="54.5959" y2="141.029" gradientUnits="userSpaceOnUse">
<stop stop-color="#B28E3C"/>
<stop offset="0.1507" stop-color="#B28E3C"/>
<stop offset="0.4873" stop-color="#C39B30"/>
<stop offset="0.7517" stop-color="#B28E3C"/>
<stop offset="1" stop-color="#C08E21"/>
</linearGradient>
<linearGradient id="paint2_linear_339_4" x1="-2.55577" y1="127.314" x2="54.5953" y2="127.314" gradientUnits="userSpaceOnUse">
<stop stop-color="#B28E3C"/>
<stop offset="0.1507" stop-color="#B28E3C"/>
<stop offset="0.4873" stop-color="#C39B30"/>
<stop offset="0.7517" stop-color="#B28E3C"/>
<stop offset="1" stop-color="#C08E21"/>
</linearGradient>
<linearGradient id="paint3_linear_339_4" x1="-2.59701" y1="253.029" x2="54.5959" y2="253.029" gradientUnits="userSpaceOnUse">
<stop stop-color="#B28E3C"/>
<stop offset="0.1507" stop-color="#B28E3C"/>
<stop offset="0.4873" stop-color="#C39B30"/>
<stop offset="0.7517" stop-color="#B28E3C"/>
<stop offset="1" stop-color="#C08E21"/>
</linearGradient>
<linearGradient id="paint4_linear_339_4" x1="-2.55577" y1="239.314" x2="54.5953" y2="239.314" gradientUnits="userSpaceOnUse">
<stop stop-color="#B28E3C"/>
<stop offset="0.1507" stop-color="#B28E3C"/>
<stop offset="0.4873" stop-color="#C39B30"/>
<stop offset="0.7517" stop-color="#B28E3C"/>
<stop offset="1" stop-color="#C08E21"/>
</linearGradient>
<linearGradient id="paint5_linear_339_4" x1="26.0322" y1="56.4086" x2="25.9903" y2="113.621" gradientUnits="userSpaceOnUse">
<stop stop-color="#B28E3C"/>
<stop offset="0.1507" stop-color="#B28E3C"/>
<stop offset="0.4873" stop-color="#C39B30"/>
<stop offset="0.7517" stop-color="#B28E3C"/>
<stop offset="1" stop-color="#C08E21"/>
</linearGradient>
<linearGradient id="paint6_linear_339_4" x1="53.9795" y1="93.4417" x2="-1.9701" y2="93.4417" gradientUnits="userSpaceOnUse">
<stop stop-color="#B28E3C"/>
<stop offset="0.1507" stop-color="#B28E3C"/>
<stop offset="0.4873" stop-color="#C39B30"/>
<stop offset="0.7517" stop-color="#B28E3C"/>
<stop offset="1" stop-color="#C08E21"/>
</linearGradient>
<linearGradient id="paint7_linear_339_4" x1="-nan" y1="-nan" x2="-nan" y2="-nan" gradientUnits="userSpaceOnUse">
<stop stop-color="#B28E3C"/>
<stop offset="0.1507" stop-color="#B28E3C"/>
<stop offset="0.4873" stop-color="#C39B30"/>
<stop offset="0.7517" stop-color="#B28E3C"/>
<stop offset="1" stop-color="#C08E21"/>
</linearGradient>
<linearGradient id="paint8_linear_339_4" x1="33.5527" y1="75.2549" x2="32.3451" y2="75.2549" gradientUnits="userSpaceOnUse">
<stop stop-color="#B28E3C"/>
<stop offset="0.1507" stop-color="#B28E3C"/>
<stop offset="0.4873" stop-color="#C39B30"/>
<stop offset="0.7517" stop-color="#B28E3C"/>
<stop offset="1" stop-color="#C08E21"/>
</linearGradient>
<linearGradient id="paint9_linear_339_4" x1="54.4454" y1="82.946" x2="32.3466" y2="82.946" gradientUnits="userSpaceOnUse">
<stop stop-color="#B28E3C"/>
<stop offset="0.1507" stop-color="#B28E3C"/>
<stop offset="0.4873" stop-color="#C39B30"/>
<stop offset="0.7517" stop-color="#B28E3C"/>
<stop offset="1" stop-color="#C08E21"/>
</linearGradient>
<linearGradient id="paint10_linear_339_4" x1="33.5595" y1="75.5241" x2="-2.0129" y2="75.5241" gradientUnits="userSpaceOnUse">
<stop stop-color="#B28E3C"/>
<stop offset="0.1507" stop-color="#B28E3C"/>
<stop offset="0.4873" stop-color="#C39B30"/>
<stop offset="0.7517" stop-color="#B28E3C"/>
<stop offset="1" stop-color="#C08E21"/>
</linearGradient>
<linearGradient id="paint11_linear_339_4" x1="53.9734" y1="101.807" x2="-1.97612" y2="101.807" gradientUnits="userSpaceOnUse">
<stop stop-color="#B28E3C"/>
<stop offset="0.1507" stop-color="#B28E3C"/>
<stop offset="0.4873" stop-color="#C39B30"/>
<stop offset="0.7517" stop-color="#B28E3C"/>
<stop offset="1" stop-color="#C08E21"/>
</linearGradient>
<linearGradient id="paint12_linear_339_4" x1="110.594" y1="84.9934" x2="53.4255" y2="84.9519" gradientUnits="userSpaceOnUse">
<stop stop-color="#B28E3C"/>
<stop offset="0.1507" stop-color="#B28E3C"/>
<stop offset="0.4873" stop-color="#C39B30"/>
<stop offset="0.7517" stop-color="#B28E3C"/>
<stop offset="1" stop-color="#C08E21"/>
</linearGradient>
<linearGradient id="paint13_linear_339_4" x1="82.0144" y1="79.9921" x2="82.0144" y2="78.757" gradientUnits="userSpaceOnUse">
<stop stop-color="#B28E3C"/>
<stop offset="0.1507" stop-color="#B28E3C"/>
<stop offset="0.4873" stop-color="#C39B30"/>
<stop offset="0.7517" stop-color="#B28E3C"/>
<stop offset="1" stop-color="#C08E21"/>
</linearGradient>
<linearGradient id="paint14_linear_339_4" x1="102.937" y1="112.976" x2="102.937" y2="79.3893" gradientUnits="userSpaceOnUse">
<stop stop-color="#B28E3C"/>
<stop offset="0.1507" stop-color="#B28E3C"/>
<stop offset="0.4873" stop-color="#C39B30"/>
<stop offset="0.7517" stop-color="#B28E3C"/>
<stop offset="1" stop-color="#C08E21"/>
</linearGradient>
<linearGradient id="paint15_linear_339_4" x1="-nan" y1="-nan" x2="-nan" y2="-nan" gradientUnits="userSpaceOnUse">
<stop stop-color="#B28E3C"/>
<stop offset="0.1507" stop-color="#B28E3C"/>
<stop offset="0.4873" stop-color="#C39B30"/>
<stop offset="0.7517" stop-color="#B28E3C"/>
<stop offset="1" stop-color="#C08E21"/>
</linearGradient>
<linearGradient id="paint16_linear_339_4" x1="-nan" y1="-nan" x2="-nan" y2="-nan" gradientUnits="userSpaceOnUse">
<stop stop-color="#B28E3C"/>
<stop offset="0.1507" stop-color="#B28E3C"/>
<stop offset="0.4873" stop-color="#C39B30"/>
<stop offset="0.7517" stop-color="#B28E3C"/>
<stop offset="1" stop-color="#C08E21"/>
</linearGradient>
<linearGradient id="paint17_linear_339_4" x1="-nan" y1="-nan" x2="-nan" y2="-nan" gradientUnits="userSpaceOnUse">
<stop stop-color="#B28E3C"/>
<stop offset="0.1507" stop-color="#B28E3C"/>
<stop offset="0.4873" stop-color="#C39B30"/>
<stop offset="0.7517" stop-color="#B28E3C"/>
<stop offset="1" stop-color="#C08E21"/>
</linearGradient>
<linearGradient id="paint18_linear_339_4" x1="75.0093" y1="112.955" x2="75.0093" y2="79.369" gradientUnits="userSpaceOnUse">
<stop stop-color="#B28E3C"/>
<stop offset="0.1507" stop-color="#B28E3C"/>
<stop offset="0.4873" stop-color="#C39B30"/>
<stop offset="0.7517" stop-color="#B28E3C"/>
<stop offset="1" stop-color="#C08E21"/>
</linearGradient>
<linearGradient id="paint19_linear_339_4" x1="64.4873" y1="113.545" x2="64.4873" y2="91.4215" gradientUnits="userSpaceOnUse">
<stop stop-color="#B28E3C"/>
<stop offset="0.1507" stop-color="#B28E3C"/>
<stop offset="0.4873" stop-color="#C39B30"/>
<stop offset="0.7517" stop-color="#B28E3C"/>
<stop offset="1" stop-color="#C08E21"/>
</linearGradient>
<linearGradient id="paint20_linear_339_4" x1="110.594" y1="196.993" x2="53.4255" y2="196.952" gradientUnits="userSpaceOnUse">
<stop stop-color="#B28E3C"/>
<stop offset="0.1507" stop-color="#B28E3C"/>
<stop offset="0.4873" stop-color="#C39B30"/>
<stop offset="0.7517" stop-color="#B28E3C"/>
<stop offset="1" stop-color="#C08E21"/>
</linearGradient>
<linearGradient id="paint21_linear_339_4" x1="82.0144" y1="191.992" x2="82.0144" y2="190.757" gradientUnits="userSpaceOnUse">
<stop stop-color="#B28E3C"/>
<stop offset="0.1507" stop-color="#B28E3C"/>
<stop offset="0.4873" stop-color="#C39B30"/>
<stop offset="0.7517" stop-color="#B28E3C"/>
<stop offset="1" stop-color="#C08E21"/>
</linearGradient>
<linearGradient id="paint22_linear_339_4" x1="102.937" y1="224.976" x2="102.937" y2="191.389" gradientUnits="userSpaceOnUse">
<stop stop-color="#B28E3C"/>
<stop offset="0.1507" stop-color="#B28E3C"/>
<stop offset="0.4873" stop-color="#C39B30"/>
<stop offset="0.7517" stop-color="#B28E3C"/>
<stop offset="1" stop-color="#C08E21"/>
</linearGradient>
<linearGradient id="paint23_linear_339_4" x1="-nan" y1="-nan" x2="-nan" y2="-nan" gradientUnits="userSpaceOnUse">
<stop stop-color="#B28E3C"/>
<stop offset="0.1507" stop-color="#B28E3C"/>
<stop offset="0.4873" stop-color="#C39B30"/>
<stop offset="0.7517" stop-color="#B28E3C"/>
<stop offset="1" stop-color="#C08E21"/>
</linearGradient>
<linearGradient id="paint24_linear_339_4" x1="-nan" y1="-nan" x2="-nan" y2="-nan" gradientUnits="userSpaceOnUse">
<stop stop-color="#B28E3C"/>
<stop offset="0.1507" stop-color="#B28E3C"/>
<stop offset="0.4873" stop-color="#C39B30"/>
<stop offset="0.7517" stop-color="#B28E3C"/>
<stop offset="1" stop-color="#C08E21"/>
</linearGradient>
<linearGradient id="paint25_linear_339_4" x1="-nan" y1="-nan" x2="-nan" y2="-nan" gradientUnits="userSpaceOnUse">
<stop stop-color="#B28E3C"/>
<stop offset="0.1507" stop-color="#B28E3C"/>
<stop offset="0.4873" stop-color="#C39B30"/>
<stop offset="0.7517" stop-color="#B28E3C"/>
<stop offset="1" stop-color="#C08E21"/>
</linearGradient>
<linearGradient id="paint26_linear_339_4" x1="75.0093" y1="224.955" x2="75.0093" y2="191.369" gradientUnits="userSpaceOnUse">
<stop stop-color="#B28E3C"/>
<stop offset="0.1507" stop-color="#B28E3C"/>
<stop offset="0.4873" stop-color="#C39B30"/>
<stop offset="0.7517" stop-color="#B28E3C"/>
<stop offset="1" stop-color="#C08E21"/>
</linearGradient>
<linearGradient id="paint27_linear_339_4" x1="64.4873" y1="225.545" x2="64.4873" y2="203.422" gradientUnits="userSpaceOnUse">
<stop stop-color="#B28E3C"/>
<stop offset="0.1507" stop-color="#B28E3C"/>
<stop offset="0.4873" stop-color="#C39B30"/>
<stop offset="0.7517" stop-color="#B28E3C"/>
<stop offset="1" stop-color="#C08E21"/>
</linearGradient>
<linearGradient id="paint28_linear_339_4" x1="378.594" y1="252.993" x2="321.425" y2="252.952" gradientUnits="userSpaceOnUse">
<stop stop-color="#B28E3C"/>
<stop offset="0.1507" stop-color="#B28E3C"/>
<stop offset="0.4873" stop-color="#C39B30"/>
<stop offset="0.7517" stop-color="#B28E3C"/>
<stop offset="1" stop-color="#C08E21"/>
</linearGradient>
<linearGradient id="paint29_linear_339_4" x1="350.014" y1="247.992" x2="350.014" y2="246.757" gradientUnits="userSpaceOnUse">
<stop stop-color="#B28E3C"/>
<stop offset="0.1507" stop-color="#B28E3C"/>
<stop offset="0.4873" stop-color="#C39B30"/>
<stop offset="0.7517" stop-color="#B28E3C"/>
<stop offset="1" stop-color="#C08E21"/>
</linearGradient>
<linearGradient id="paint30_linear_339_4" x1="370.937" y1="280.976" x2="370.937" y2="247.389" gradientUnits="userSpaceOnUse">
<stop stop-color="#B28E3C"/>
<stop offset="0.1507" stop-color="#B28E3C"/>
<stop offset="0.4873" stop-color="#C39B30"/>
<stop offset="0.7517" stop-color="#B28E3C"/>
<stop offset="1" stop-color="#C08E21"/>
</linearGradient>
<linearGradient id="paint31_linear_339_4" x1="-nan" y1="-nan" x2="-nan" y2="-nan" gradientUnits="userSpaceOnUse">
<stop stop-color="#B28E3C"/>
<stop offset="0.1507" stop-color="#B28E3C"/>
<stop offset="0.4873" stop-color="#C39B30"/>
<stop offset="0.7517" stop-color="#B28E3C"/>
<stop offset="1" stop-color="#C08E21"/>
</linearGradient>
<linearGradient id="paint32_linear_339_4" x1="-nan" y1="-nan" x2="-nan" y2="-nan" gradientUnits="userSpaceOnUse">
<stop stop-color="#B28E3C"/>
<stop offset="0.1507" stop-color="#B28E3C"/>
<stop offset="0.4873" stop-color="#C39B30"/>
<stop offset="0.7517" stop-color="#B28E3C"/>
<stop offset="1" stop-color="#C08E21"/>
</linearGradient>
<linearGradient id="paint33_linear_339_4" x1="-nan" y1="-nan" x2="-nan" y2="-nan" gradientUnits="userSpaceOnUse">
<stop stop-color="#B28E3C"/>
<stop offset="0.1507" stop-color="#B28E3C"/>
<stop offset="0.4873" stop-color="#C39B30"/>
<stop offset="0.7517" stop-color="#B28E3C"/>
<stop offset="1" stop-color="#C08E21"/>
</linearGradient>
<linearGradient id="paint34_linear_339_4" x1="343.009" y1="280.955" x2="343.009" y2="247.369" gradientUnits="userSpaceOnUse">
<stop stop-color="#B28E3C"/>
<stop offset="0.1507" stop-color="#B28E3C"/>
<stop offset="0.4873" stop-color="#C39B30"/>
<stop offset="0.7517" stop-color="#B28E3C"/>
<stop offset="1" stop-color="#C08E21"/>
</linearGradient>
<linearGradient id="paint35_linear_339_4" x1="332.487" y1="281.545" x2="332.487" y2="259.422" gradientUnits="userSpaceOnUse">
<stop stop-color="#B28E3C"/>
<stop offset="0.1507" stop-color="#B28E3C"/>
<stop offset="0.4873" stop-color="#C39B30"/>
<stop offset="0.7517" stop-color="#B28E3C"/>
<stop offset="1" stop-color="#C08E21"/>
</linearGradient>
<linearGradient id="paint36_linear_339_4" x1="378.597" y1="141.03" x2="321.462" y2="141.03" gradientUnits="userSpaceOnUse">
<stop stop-color="#B28E3C"/>
<stop offset="0.1507" stop-color="#B28E3C"/>
<stop offset="0.4873" stop-color="#C39B30"/>
<stop offset="0.7517" stop-color="#B28E3C"/>
<stop offset="1" stop-color="#C08E21"/>
</linearGradient>
<linearGradient id="paint37_linear_339_4" x1="-nan" y1="-nan" x2="-nan" y2="-nan" gradientUnits="userSpaceOnUse">
<stop stop-color="#B28E3C"/>
<stop offset="0.1507" stop-color="#B28E3C"/>
<stop offset="0.4873" stop-color="#C39B30"/>
<stop offset="0.7517" stop-color="#B28E3C"/>
<stop offset="1" stop-color="#C08E21"/>
</linearGradient>
<linearGradient id="paint38_linear_339_4" x1="344.435" y1="161.969" x2="378.001" y2="161.969" gradientUnits="userSpaceOnUse">
<stop stop-color="#B28E3C"/>
<stop offset="0.1507" stop-color="#B28E3C"/>
<stop offset="0.4873" stop-color="#C39B30"/>
<stop offset="0.7517" stop-color="#B28E3C"/>
<stop offset="1" stop-color="#C08E21"/>
</linearGradient>
<linearGradient id="paint39_linear_339_4" x1="-nan" y1="-nan" x2="-nan" y2="-nan" gradientUnits="userSpaceOnUse">
<stop stop-color="#B28E3C"/>
<stop offset="0.1507" stop-color="#B28E3C"/>
<stop offset="0.4873" stop-color="#C39B30"/>
<stop offset="0.7517" stop-color="#B28E3C"/>
<stop offset="1" stop-color="#C08E21"/>
</linearGradient>
<linearGradient id="paint40_linear_339_4" x1="-nan" y1="-nan" x2="-nan" y2="-nan" gradientUnits="userSpaceOnUse">
<stop stop-color="#B28E3C"/>
<stop offset="0.1507" stop-color="#B28E3C"/>
<stop offset="0.4873" stop-color="#C39B30"/>
<stop offset="0.7517" stop-color="#B28E3C"/>
<stop offset="1" stop-color="#C08E21"/>
</linearGradient>
<linearGradient id="paint41_linear_339_4" x1="-nan" y1="-nan" x2="-nan" y2="-nan" gradientUnits="userSpaceOnUse">
<stop stop-color="#B28E3C"/>
<stop offset="0.1507" stop-color="#B28E3C"/>
<stop offset="0.4873" stop-color="#C39B30"/>
<stop offset="0.7517" stop-color="#B28E3C"/>
<stop offset="1" stop-color="#C08E21"/>
</linearGradient>
<linearGradient id="paint42_linear_339_4" x1="-nan" y1="-nan" x2="-nan" y2="-nan" gradientUnits="userSpaceOnUse">
<stop stop-color="#B28E3C"/>
<stop offset="0.1507" stop-color="#B28E3C"/>
<stop offset="0.4873" stop-color="#C39B30"/>
<stop offset="0.7517" stop-color="#B28E3C"/>
<stop offset="1" stop-color="#C08E21"/>
</linearGradient>
<linearGradient id="paint43_linear_339_4" x1="356.488" y1="123.517" x2="378.597" y2="123.517" gradientUnits="userSpaceOnUse">
<stop stop-color="#B28E3C"/>
<stop offset="0.1507" stop-color="#B28E3C"/>
<stop offset="0.4873" stop-color="#C39B30"/>
<stop offset="0.7517" stop-color="#B28E3C"/>
<stop offset="1" stop-color="#C08E21"/>
</linearGradient>
<linearGradient id="paint44_linear_339_4" x1="321.467" y1="28.7333" x2="378.191" y2="28.7333" gradientUnits="userSpaceOnUse">
<stop stop-color="#B28E3C"/>
<stop offset="0.1507" stop-color="#B28E3C"/>
<stop offset="0.4873" stop-color="#C39B30"/>
<stop offset="0.7517" stop-color="#B28E3C"/>
<stop offset="1" stop-color="#C08E21"/>
</linearGradient>
<linearGradient id="paint45_linear_339_4" x1="-nan" y1="-nan" x2="-nan" y2="-nan" gradientUnits="userSpaceOnUse">
<stop stop-color="#B28E3C"/>
<stop offset="0.1507" stop-color="#B28E3C"/>
<stop offset="0.4873" stop-color="#C39B30"/>
<stop offset="0.7517" stop-color="#B28E3C"/>
<stop offset="1" stop-color="#C08E21"/>
</linearGradient>
<linearGradient id="paint46_linear_339_4" x1="370.617" y1="34.2867" x2="370.617" y2="0.970032" gradientUnits="userSpaceOnUse">
<stop stop-color="#B28E3C"/>
<stop offset="0.1507" stop-color="#B28E3C"/>
<stop offset="0.4873" stop-color="#C39B30"/>
<stop offset="0.7517" stop-color="#B28E3C"/>
<stop offset="1" stop-color="#C08E21"/>
</linearGradient>
<linearGradient id="paint47_linear_339_4" x1="-nan" y1="-nan" x2="-nan" y2="-nan" gradientUnits="userSpaceOnUse">
<stop stop-color="#B28E3C"/>
<stop offset="0.1507" stop-color="#B28E3C"/>
<stop offset="0.4873" stop-color="#C39B30"/>
<stop offset="0.7517" stop-color="#B28E3C"/>
<stop offset="1" stop-color="#C08E21"/>
</linearGradient>
<linearGradient id="paint48_linear_339_4" x1="-nan" y1="-nan" x2="-nan" y2="-nan" gradientUnits="userSpaceOnUse">
<stop stop-color="#B28E3C"/>
<stop offset="0.1507" stop-color="#B28E3C"/>
<stop offset="0.4873" stop-color="#C39B30"/>
<stop offset="0.7517" stop-color="#B28E3C"/>
<stop offset="1" stop-color="#C08E21"/>
</linearGradient>
<linearGradient id="paint49_linear_339_4" x1="-nan" y1="-nan" x2="-nan" y2="-nan" gradientUnits="userSpaceOnUse">
<stop stop-color="#B28E3C"/>
<stop offset="0.1507" stop-color="#B28E3C"/>
<stop offset="0.4873" stop-color="#C39B30"/>
<stop offset="0.7517" stop-color="#B28E3C"/>
<stop offset="1" stop-color="#C08E21"/>
</linearGradient>
<linearGradient id="paint50_linear_339_4" x1="-nan" y1="-nan" x2="-nan" y2="-nan" gradientUnits="userSpaceOnUse">
<stop stop-color="#B28E3C"/>
<stop offset="0.1507" stop-color="#B28E3C"/>
<stop offset="0.4873" stop-color="#C39B30"/>
<stop offset="0.7517" stop-color="#B28E3C"/>
<stop offset="1" stop-color="#C08E21"/>
</linearGradient>
<linearGradient id="paint51_linear_339_4" x1="332.441" y1="22.3232" x2="332.441" y2="0.378593" gradientUnits="userSpaceOnUse">
<stop stop-color="#B28E3C"/>
<stop offset="0.1507" stop-color="#B28E3C"/>
<stop offset="0.4873" stop-color="#C39B30"/>
<stop offset="0.7517" stop-color="#B28E3C"/>
<stop offset="1" stop-color="#C08E21"/>
</linearGradient>
<linearGradient id="paint52_linear_339_4" x1="-nan" y1="-nan" x2="-nan" y2="-nan" gradientUnits="userSpaceOnUse">
<stop stop-color="#B28E3C"/>
<stop offset="0.1507" stop-color="#B28E3C"/>
<stop offset="0.4873" stop-color="#C39B30"/>
<stop offset="0.7517" stop-color="#B28E3C"/>
<stop offset="1" stop-color="#C08E21"/>
</linearGradient>
<linearGradient id="paint53_linear_339_4" x1="277.224" y1="67.5745" x2="277.224" y2="91.1754" gradientUnits="userSpaceOnUse">
<stop stop-color="#B28E3C"/>
<stop offset="0.1507" stop-color="#B28E3C"/>
<stop offset="0.4873" stop-color="#C39B30"/>
<stop offset="0.7517" stop-color="#B28E3C"/>
<stop offset="1" stop-color="#C08E21"/>
</linearGradient>
<linearGradient id="paint54_linear_339_4" x1="304.887" y1="57.0159" x2="304.887" y2="91.2221" gradientUnits="userSpaceOnUse">
<stop stop-color="#B28E3C"/>
<stop offset="0.1507" stop-color="#B28E3C"/>
<stop offset="0.4873" stop-color="#C39B30"/>
<stop offset="0.7517" stop-color="#B28E3C"/>
<stop offset="1" stop-color="#C08E21"/>
</linearGradient>
<linearGradient id="paint55_linear_339_4" x1="322.555" y1="84.992" x2="265.406" y2="84.992" gradientUnits="userSpaceOnUse">
<stop stop-color="#B28E3C"/>
<stop offset="0.1507" stop-color="#B28E3C"/>
<stop offset="0.4873" stop-color="#C39B30"/>
<stop offset="0.7517" stop-color="#B28E3C"/>
<stop offset="1" stop-color="#C08E21"/>
</linearGradient>
<linearGradient id="paint56_linear_339_4" x1="-nan" y1="-nan" x2="-nan" y2="-nan" gradientUnits="userSpaceOnUse">
<stop stop-color="#B28E3C"/>
<stop offset="0.1507" stop-color="#B28E3C"/>
<stop offset="0.4873" stop-color="#C39B30"/>
<stop offset="0.7517" stop-color="#B28E3C"/>
<stop offset="1" stop-color="#C08E21"/>
</linearGradient>
<linearGradient id="paint57_linear_339_4" x1="-nan" y1="-nan" x2="-nan" y2="-nan" gradientUnits="userSpaceOnUse">
<stop stop-color="#B28E3C"/>
<stop offset="0.1507" stop-color="#B28E3C"/>
<stop offset="0.4873" stop-color="#C39B30"/>
<stop offset="0.7517" stop-color="#B28E3C"/>
<stop offset="1" stop-color="#C08E21"/>
</linearGradient>
<linearGradient id="paint58_linear_339_4" x1="277.224" y1="179.574" x2="277.224" y2="203.175" gradientUnits="userSpaceOnUse">
<stop stop-color="#B28E3C"/>
<stop offset="0.1507" stop-color="#B28E3C"/>
<stop offset="0.4873" stop-color="#C39B30"/>
<stop offset="0.7517" stop-color="#B28E3C"/>
<stop offset="1" stop-color="#C08E21"/>
</linearGradient>
<linearGradient id="paint59_linear_339_4" x1="304.887" y1="169.016" x2="304.887" y2="203.222" gradientUnits="userSpaceOnUse">
<stop stop-color="#B28E3C"/>
<stop offset="0.1507" stop-color="#B28E3C"/>
<stop offset="0.4873" stop-color="#C39B30"/>
<stop offset="0.7517" stop-color="#B28E3C"/>
<stop offset="1" stop-color="#C08E21"/>
</linearGradient>
<linearGradient id="paint60_linear_339_4" x1="322.555" y1="196.992" x2="265.406" y2="196.992" gradientUnits="userSpaceOnUse">
<stop stop-color="#B28E3C"/>
<stop offset="0.1507" stop-color="#B28E3C"/>
<stop offset="0.4873" stop-color="#C39B30"/>
<stop offset="0.7517" stop-color="#B28E3C"/>
<stop offset="1" stop-color="#C08E21"/>
</linearGradient>
<linearGradient id="paint61_linear_339_4" x1="-nan" y1="-nan" x2="-nan" y2="-nan" gradientUnits="userSpaceOnUse">
<stop stop-color="#B28E3C"/>
<stop offset="0.1507" stop-color="#B28E3C"/>
<stop offset="0.4873" stop-color="#C39B30"/>
<stop offset="0.7517" stop-color="#B28E3C"/>
<stop offset="1" stop-color="#C08E21"/>
</linearGradient>
<linearGradient id="paint62_linear_339_4" x1="-nan" y1="-nan" x2="-nan" y2="-nan" gradientUnits="userSpaceOnUse">
<stop stop-color="#B28E3C"/>
<stop offset="0.1507" stop-color="#B28E3C"/>
<stop offset="0.4873" stop-color="#C39B30"/>
<stop offset="0.7517" stop-color="#B28E3C"/>
<stop offset="1" stop-color="#C08E21"/>
</linearGradient>
<linearGradient id="paint63_linear_339_4" x1="43.4251" y1="180.207" x2="19.8241" y2="180.207" gradientUnits="userSpaceOnUse">
<stop stop-color="#B28E3C"/>
<stop offset="0.1507" stop-color="#B28E3C"/>
<stop offset="0.4873" stop-color="#C39B30"/>
<stop offset="0.7517" stop-color="#B28E3C"/>
<stop offset="1" stop-color="#C08E21"/>
</linearGradient>
<linearGradient id="paint64_linear_339_4" x1="53.9842" y1="207.87" x2="19.778" y2="207.87" gradientUnits="userSpaceOnUse">
<stop stop-color="#B28E3C"/>
<stop offset="0.1507" stop-color="#B28E3C"/>
<stop offset="0.4873" stop-color="#C39B30"/>
<stop offset="0.7517" stop-color="#B28E3C"/>
<stop offset="1" stop-color="#C08E21"/>
</linearGradient>
<linearGradient id="paint65_linear_339_4" x1="26.008" y1="225.537" x2="26.008" y2="168.388" gradientUnits="userSpaceOnUse">
<stop stop-color="#B28E3C"/>
<stop offset="0.1507" stop-color="#B28E3C"/>
<stop offset="0.4873" stop-color="#C39B30"/>
<stop offset="0.7517" stop-color="#B28E3C"/>
<stop offset="1" stop-color="#C08E21"/>
</linearGradient>
<linearGradient id="paint66_linear_339_4" x1="-nan" y1="-nan" x2="-nan" y2="-nan" gradientUnits="userSpaceOnUse">
<stop stop-color="#B28E3C"/>
<stop offset="0.1507" stop-color="#B28E3C"/>
<stop offset="0.4873" stop-color="#C39B30"/>
<stop offset="0.7517" stop-color="#B28E3C"/>
<stop offset="1" stop-color="#C08E21"/>
</linearGradient>
<linearGradient id="paint67_linear_339_4" x1="321.372" y1="85.0314" x2="378.626" y2="85.0314" gradientUnits="userSpaceOnUse">
<stop stop-color="#B28E3C"/>
<stop offset="0.1507" stop-color="#B28E3C"/>
<stop offset="0.4873" stop-color="#C39B30"/>
<stop offset="0.7517" stop-color="#B28E3C"/>
<stop offset="1" stop-color="#C08E21"/>
</linearGradient>
<linearGradient id="paint68_linear_339_4" x1="321.414" y1="71.33" x2="378.626" y2="71.33" gradientUnits="userSpaceOnUse">
<stop stop-color="#B28E3C"/>
<stop offset="0.1507" stop-color="#B28E3C"/>
<stop offset="0.4873" stop-color="#C39B30"/>
<stop offset="0.7517" stop-color="#B28E3C"/>
<stop offset="1" stop-color="#C08E21"/>
</linearGradient>
<linearGradient id="paint69_linear_339_4" x1="349.969" y1="168.372" x2="349.969" y2="225.626" gradientUnits="userSpaceOnUse">
<stop stop-color="#B28E3C"/>
<stop offset="0.1507" stop-color="#B28E3C"/>
<stop offset="0.4873" stop-color="#C39B30"/>
<stop offset="0.7517" stop-color="#B28E3C"/>
<stop offset="1" stop-color="#C08E21"/>
</linearGradient>
<linearGradient id="paint70_linear_339_4" x1="363.67" y1="168.414" x2="363.67" y2="225.626" gradientUnits="userSpaceOnUse">
<stop stop-color="#B28E3C"/>
<stop offset="0.1507" stop-color="#B28E3C"/>
<stop offset="0.4873" stop-color="#C39B30"/>
<stop offset="0.7517" stop-color="#B28E3C"/>
<stop offset="1" stop-color="#C08E21"/>
</linearGradient>
<linearGradient id="paint71_linear_339_4" x1="-2.53782" y1="28.9556" x2="54.5968" y2="28.9556" gradientUnits="userSpaceOnUse">
<stop stop-color="#B28E3C"/>
<stop offset="0.1507" stop-color="#B28E3C"/>
<stop offset="0.4873" stop-color="#C39B30"/>
<stop offset="0.7517" stop-color="#B28E3C"/>
<stop offset="1" stop-color="#C08E21"/>
</linearGradient>
<linearGradient id="paint72_linear_339_4" x1="-nan" y1="-nan" x2="-nan" y2="-nan" gradientUnits="userSpaceOnUse">
<stop stop-color="#B28E3C"/>
<stop offset="0.1507" stop-color="#B28E3C"/>
<stop offset="0.4873" stop-color="#C39B30"/>
<stop offset="0.7517" stop-color="#B28E3C"/>
<stop offset="1" stop-color="#C08E21"/>
</linearGradient>
<linearGradient id="paint73_linear_339_4" x1="46.968" y1="34.5536" x2="46.968" y2="0.969792" gradientUnits="userSpaceOnUse">
<stop stop-color="#B28E3C"/>
<stop offset="0.1507" stop-color="#B28E3C"/>
<stop offset="0.4873" stop-color="#C39B30"/>
<stop offset="0.7517" stop-color="#B28E3C"/>
<stop offset="1" stop-color="#C08E21"/>
</linearGradient>
<linearGradient id="paint74_linear_339_4" x1="-nan" y1="-nan" x2="-nan" y2="-nan" gradientUnits="userSpaceOnUse">
<stop stop-color="#B28E3C"/>
<stop offset="0.1507" stop-color="#B28E3C"/>
<stop offset="0.4873" stop-color="#C39B30"/>
<stop offset="0.7517" stop-color="#B28E3C"/>
<stop offset="1" stop-color="#C08E21"/>
</linearGradient>
<linearGradient id="paint75_linear_339_4" x1="-nan" y1="-nan" x2="-nan" y2="-nan" gradientUnits="userSpaceOnUse">
<stop stop-color="#B28E3C"/>
<stop offset="0.1507" stop-color="#B28E3C"/>
<stop offset="0.4873" stop-color="#C39B30"/>
<stop offset="0.7517" stop-color="#B28E3C"/>
<stop offset="1" stop-color="#C08E21"/>
</linearGradient>
<linearGradient id="paint76_linear_339_4" x1="-nan" y1="-nan" x2="-nan" y2="-nan" gradientUnits="userSpaceOnUse">
<stop stop-color="#B28E3C"/>
<stop offset="0.1507" stop-color="#B28E3C"/>
<stop offset="0.4873" stop-color="#C39B30"/>
<stop offset="0.7517" stop-color="#B28E3C"/>
<stop offset="1" stop-color="#C08E21"/>
</linearGradient>
<linearGradient id="paint77_linear_339_4" x1="-nan" y1="-nan" x2="-nan" y2="-nan" gradientUnits="userSpaceOnUse">
<stop stop-color="#B28E3C"/>
<stop offset="0.1507" stop-color="#B28E3C"/>
<stop offset="0.4873" stop-color="#C39B30"/>
<stop offset="0.7517" stop-color="#B28E3C"/>
<stop offset="1" stop-color="#C08E21"/>
</linearGradient>
<linearGradient id="paint78_linear_339_4" x1="8.51633" y1="22.4942" x2="8.51633" y2="0.373612" gradientUnits="userSpaceOnUse">
<stop stop-color="#B28E3C"/>
<stop offset="0.1507" stop-color="#B28E3C"/>
<stop offset="0.4873" stop-color="#C39B30"/>
<stop offset="0.7517" stop-color="#B28E3C"/>
<stop offset="1" stop-color="#C08E21"/>
</linearGradient>
<linearGradient id="paint79_linear_339_4" x1="54" y1="136.502" x2="321.964" y2="136.502" gradientUnits="userSpaceOnUse">
<stop stop-color="#B28E3C"/>
<stop offset="0.1507" stop-color="#B28E3C"/>
<stop offset="0.4873" stop-color="#C39B30"/>
<stop offset="0.7517" stop-color="#B28E3C"/>
<stop offset="1" stop-color="#C08E21"/>
</linearGradient>
</defs>
</svg>
