<svg width="1653" height="697" viewBox="0 0 1653 697" fill="none" xmlns="http://www.w3.org/2000/svg">
<path d="M1650.74 134.176H1486V299H1650.74V134.176Z" stroke="url(#paint0_linear_279_12)" stroke-width="3" stroke-miterlimit="10"/>
<path d="M1650.74 134.176C1650.74 179.736 1613.82 216.5 1568.28 216.5C1522.75 216.5 1486 179.56 1486 134" stroke="url(#paint1_linear_279_12)" stroke-width="3" stroke-miterlimit="10"/>
<path d="M1486.69 199.644V34.7711L1321.78 34.7711V199.644L1486.69 199.644Z" stroke="url(#paint2_linear_279_12)" stroke-width="3" stroke-miterlimit="10"/>
<path d="M1322.04 133.554H1486.78" stroke="url(#paint3_linear_279_12)" stroke-width="3" stroke-miterlimit="10"/>
<path d="M1466.21 34.7711L1466.03 133.554" stroke="url(#paint4_linear_279_12)" stroke-width="3" stroke-miterlimit="10"/>
<path d="M1445.46 34.7711V133.554" stroke="url(#paint5_linear_279_12)" stroke-width="3" stroke-miterlimit="10"/>
<path d="M1424.72 34.7711V133.554" stroke="url(#paint6_linear_279_12)" stroke-width="3" stroke-miterlimit="10"/>
<path d="M1404.15 34.7711V133.554" stroke="url(#paint7_linear_279_12)" stroke-width="3" stroke-miterlimit="10"/>
<path d="M1383.75 34.7711V133.554" stroke="url(#paint8_linear_279_12)" stroke-width="3" stroke-miterlimit="10"/>
<path d="M1352.81 96.2909C1369.8 96.2909 1383.57 82.5192 1383.57 65.531C1383.57 48.5428 1369.8 34.7711 1352.81 34.7711C1335.81 34.7711 1322.04 48.5428 1322.04 65.531C1322.04 82.5192 1335.81 96.2909 1352.81 96.2909Z" stroke="url(#paint9_linear_279_12)" stroke-width="3" stroke-miterlimit="10"/>
<path d="M1322.18 298.653H1487.09" stroke="url(#paint10_linear_279_12)" stroke-width="3" stroke-miterlimit="10"/>
<path d="M1355.23 298.477C1373.39 298.477 1388.11 283.761 1388.11 265.608C1388.11 247.455 1373.39 232.739 1355.23 232.739C1337.07 232.739 1322.35 247.455 1322.35 265.608C1322.35 283.761 1337.07 298.477 1355.23 298.477Z" stroke="url(#paint11_linear_279_12)" stroke-width="3" stroke-miterlimit="10"/>
<path d="M1388.11 199.87C1388.11 254.534 1432.24 298.653 1486.92 298.653" stroke="url(#paint12_linear_279_12)" stroke-width="3" stroke-miterlimit="10"/>
<path d="M1486.92 364.437V199.74L1322.18 199.74V364.437H1486.92Z" stroke="url(#paint13_linear_279_12)" stroke-width="3" stroke-miterlimit="10"/>
<path d="M1388.11 364.391V199.87" stroke="url(#paint14_linear_279_12)" stroke-width="3" stroke-miterlimit="10"/>
<path d="M331.992 133L331.778 363.611L1321.56 364.182L1321.78 133.571L331.992 133Z" stroke="url(#paint15_linear_279_12)" stroke-width="3" stroke-miterlimit="10"/>
<path d="M332.107 694.608L496.824 694.608L496.824 365.037L332.107 365.037L332.107 694.608Z" stroke="url(#paint16_linear_279_12)" stroke-width="3" stroke-miterlimit="10"/>
<path d="M332.107 513.388C332.107 467.863 369.024 431.127 414.554 431.127C460.084 431.127 496.824 468.039 496.824 513.564" stroke="url(#paint17_linear_279_12)" stroke-width="3" stroke-miterlimit="10"/>
<path d="M414.446 612.218L414.507 529.781L332.061 529.721L332 612.157L414.446 612.218Z" stroke="url(#paint18_linear_279_12)" stroke-width="3" stroke-miterlimit="10"/>
<path d="M332.107 529.735L496.824 694.608" stroke="url(#paint19_linear_279_12)" stroke-width="3" stroke-miterlimit="10"/>
<path d="M496.824 612.347L414.378 612.171" stroke="url(#paint20_linear_279_12)" stroke-width="3" stroke-miterlimit="10"/>
<path d="M455.689 529.91C432.971 529.91 414.554 548.325 414.554 571.041C414.554 593.756 432.971 612.171 455.689 612.171C478.407 612.171 496.824 593.756 496.824 571.041C496.824 548.325 478.407 529.91 455.689 529.91Z" stroke="url(#paint21_linear_279_12)" stroke-width="3" stroke-miterlimit="10"/>
<path d="M332.283 430.951L497 431.127" stroke="url(#paint22_linear_279_12)" stroke-width="3" stroke-miterlimit="10"/>
<path d="M469.225 451.692L472.389 451.692L497 451.692" stroke="url(#paint23_linear_279_12)" stroke-width="3" stroke-miterlimit="10"/>
<path d="M488.914 476.3L497 476.3" stroke="url(#paint24_linear_279_12)" stroke-width="3" stroke-miterlimit="10"/>
<path d="M332.283 451.516L357.07 451.516L359.883 451.516" stroke="url(#paint25_linear_279_12)" stroke-width="3" stroke-miterlimit="10"/>
<path d="M332.107 476.3L340.545 476.3" stroke="url(#paint26_linear_279_12)" stroke-width="3" stroke-miterlimit="10"/>
<path d="M476.432 612.347L476.432 673.867" stroke="url(#paint27_linear_279_12)" stroke-width="3" stroke-miterlimit="10"/>
<path d="M455.865 612.171L455.865 653.477" stroke="url(#paint28_linear_279_12)" stroke-width="3" stroke-miterlimit="10"/>
<path d="M435.297 612.171L435.297 632.912" stroke="url(#paint29_linear_279_12)" stroke-width="3" stroke-miterlimit="10"/>
<path d="M1486.35 529.857L1486.47 365.117L1156.9 364.876L1156.78 529.616L1486.35 529.857Z" stroke="url(#paint30_linear_279_12)" stroke-width="3" stroke-miterlimit="10"/>
<path d="M1305.06 529.678C1259.53 529.678 1222.8 492.756 1222.8 447.22C1222.8 401.684 1259.71 364.938 1305.23 364.938" stroke="url(#paint31_linear_279_12)" stroke-width="3" stroke-miterlimit="10"/>
<path d="M1404.17 447.363L1321.73 447.302L1321.67 529.76L1404.11 529.82L1404.17 447.363Z" stroke="url(#paint32_linear_279_12)" stroke-width="3" stroke-miterlimit="10"/>
<path d="M1321.58 529.678L1486.45 365.114" stroke="url(#paint33_linear_279_12)" stroke-width="3" stroke-miterlimit="10"/>
<path d="M1404.02 364.938L1404.02 447.396" stroke="url(#paint34_linear_279_12)" stroke-width="3" stroke-miterlimit="10"/>
<path d="M1404.02 406.255C1404.02 383.533 1385.6 365.114 1362.89 365.114C1340.17 365.114 1321.76 383.533 1321.76 406.255C1321.76 428.976 1340.17 447.396 1362.89 447.396C1385.6 447.396 1404.02 428.976 1404.02 406.255Z" stroke="url(#paint35_linear_279_12)" stroke-width="3" stroke-miterlimit="10"/>
<path d="M1222.8 529.678L1222.8 364.938" stroke="url(#paint36_linear_279_12)" stroke-width="3" stroke-miterlimit="10"/>
<path d="M1243.36 392.717L1243.36 389.376L1243.54 364.938" stroke="url(#paint37_linear_279_12)" stroke-width="3" stroke-miterlimit="10"/>
<path d="M1268.15 373.025L1268.15 364.938" stroke="url(#paint38_linear_279_12)" stroke-width="3" stroke-miterlimit="10"/>
<path d="M1243.36 529.678L1243.36 504.712L1243.36 501.899" stroke="url(#paint39_linear_279_12)" stroke-width="3" stroke-miterlimit="10"/>
<path d="M1267.97 529.678L1267.97 521.238" stroke="url(#paint40_linear_279_12)" stroke-width="3" stroke-miterlimit="10"/>
<path d="M1404.02 385.333L1465.71 385.508" stroke="url(#paint41_linear_279_12)" stroke-width="3" stroke-miterlimit="10"/>
<path d="M1404.02 406.079L1445.32 406.079" stroke="url(#paint42_linear_279_12)" stroke-width="3" stroke-miterlimit="10"/>
<path d="M1404.02 426.649L1424.58 426.649" stroke="url(#paint43_linear_279_12)" stroke-width="3" stroke-miterlimit="10"/>
<path d="M661.915 529.771L661.915 364.856L497 364.856L497 529.771L661.915 529.771Z" stroke="url(#paint44_linear_279_12)" stroke-width="3" stroke-miterlimit="10"/>
<path d="M497.261 463.579L662 463.579" stroke="url(#paint45_linear_279_12)" stroke-width="3" stroke-miterlimit="10"/>
<path d="M641.43 364.771L641.254 463.579" stroke="url(#paint46_linear_279_12)" stroke-width="3" stroke-miterlimit="10"/>
<path d="M620.684 364.771L620.684 463.579" stroke="url(#paint47_linear_279_12)" stroke-width="3" stroke-miterlimit="10"/>
<path d="M599.937 364.771L599.937 463.579" stroke="url(#paint48_linear_279_12)" stroke-width="3" stroke-miterlimit="10"/>
<path d="M579.367 364.771L579.367 463.579" stroke="url(#paint49_linear_279_12)" stroke-width="3" stroke-miterlimit="10"/>
<path d="M558.972 364.771L558.972 463.579" stroke="url(#paint50_linear_279_12)" stroke-width="3" stroke-miterlimit="10"/>
<path d="M558.797 395.539C558.797 378.546 545.021 364.771 528.029 364.771C511.036 364.771 497.261 378.546 497.261 395.539C497.261 412.531 511.036 426.306 528.029 426.306C545.021 426.306 558.797 412.531 558.797 395.539Z" stroke="url(#paint51_linear_279_12)" stroke-width="3" stroke-miterlimit="10"/>
<path d="M331.37 166.808H166.63V331.505H331.37V166.808Z" stroke="url(#paint52_linear_279_12)" stroke-width="3" stroke-miterlimit="10"/>
<path d="M331.546 166.984C331.546 212.508 294.624 249.245 249.088 249.245C203.552 249.245 166.806 212.333 166.806 166.808" stroke="url(#paint53_linear_279_12)" stroke-width="3" stroke-miterlimit="10"/>
<path d="M167.182 1.99998L167.062 166.697L331.801 166.818L331.922 2.12056L167.182 1.99998Z" stroke="url(#paint54_linear_279_12)" stroke-width="3" stroke-miterlimit="10"/>
<path d="M331.897 109.331L167.158 109.155" stroke="url(#paint55_linear_279_12)" stroke-width="3" stroke-miterlimit="10"/>
<path d="M331.897 26.8945H167.158" stroke="url(#paint56_linear_279_12)" stroke-width="3" stroke-miterlimit="10"/>
<path d="M269.834 109.331L270.01 2.11066" stroke="url(#paint57_linear_279_12)" stroke-width="3" stroke-miterlimit="10"/>
<path d="M300.778 109.331C317.771 109.331 331.546 95.4806 331.546 78.3953C331.546 61.31 317.771 47.4597 300.778 47.4597C283.785 47.4597 270.01 61.31 270.01 78.3953C270.01 95.4806 283.785 109.331 300.778 109.331Z" stroke="url(#paint58_linear_279_12)" stroke-width="3" stroke-miterlimit="10"/>
<path d="M270.01 2.11066C270.01 58.7089 224.65 105.112 167.158 109.155" stroke="url(#paint59_linear_279_12)" stroke-width="3" stroke-miterlimit="10"/>
<path d="M166.982 133.763L331.897 133.939" stroke="url(#paint60_linear_279_12)" stroke-width="3" stroke-miterlimit="10"/>
<path d="M166.681 331.619L166.56 496.316L331.3 496.437L331.42 331.739L166.681 331.619Z" stroke="url(#paint61_linear_279_12)" stroke-width="3" stroke-miterlimit="10"/>
<path d="M166.63 397.419L331.546 397.595" stroke="url(#paint62_linear_279_12)" stroke-width="3" stroke-miterlimit="10"/>
<path d="M310.799 496.378L310.624 397.595" stroke="url(#paint63_linear_279_12)" stroke-width="3" stroke-miterlimit="10"/>
<path d="M290.053 496.378V397.419" stroke="url(#paint64_linear_279_12)" stroke-width="3" stroke-miterlimit="10"/>
<path d="M269.483 496.378V397.419" stroke="url(#paint65_linear_279_12)" stroke-width="3" stroke-miterlimit="10"/>
<path d="M248.912 496.378V397.419" stroke="url(#paint66_linear_279_12)" stroke-width="3" stroke-miterlimit="10"/>
<path d="M228.342 496.378L228.518 397.419" stroke="url(#paint67_linear_279_12)" stroke-width="3" stroke-miterlimit="10"/>
<path d="M197.398 496.203C214.391 496.203 228.166 482.431 228.166 465.443C228.166 448.455 214.391 434.683 197.398 434.683C180.406 434.683 166.63 448.455 166.63 465.443C166.63 482.431 180.406 496.203 197.398 496.203Z" stroke="url(#paint68_linear_279_12)" stroke-width="3" stroke-miterlimit="10"/>
<path d="M166.63 430.464H1.89062V496.378H166.63V430.464Z" stroke="url(#paint69_linear_279_12)" stroke-width="3" stroke-miterlimit="10"/>
<path d="M101.051 265.767L100.875 430.464" stroke="url(#paint70_linear_279_12)" stroke-width="3" stroke-miterlimit="10"/>
<path d="M35.1198 331.505C53.2776 331.505 67.9974 316.789 67.9974 298.636C67.9974 280.483 53.2776 265.767 35.1198 265.767C16.962 265.767 2.24219 280.483 2.24219 298.636C2.24219 316.789 16.962 331.505 35.1198 331.505Z" stroke="url(#paint71_linear_279_12)" stroke-width="3" stroke-miterlimit="10"/>
<path d="M2.06641 331.681C56.7452 331.681 100.875 375.975 100.875 430.464" stroke="url(#paint72_linear_279_12)" stroke-width="3" stroke-miterlimit="10"/>
<path d="M166.63 265.591H1.89062V430.288H166.63V265.591Z" stroke="url(#paint73_linear_279_12)" stroke-width="3" stroke-miterlimit="10"/>
<path d="M166.806 331.681H2.06641" stroke="url(#paint74_linear_279_12)" stroke-width="3" stroke-miterlimit="10"/>
<path d="M602.6 294V290.23C592.2 289.45 591.03 288.67 591.03 277.62V226.01C591.03 214.96 592.2 214.18 602.6 213.27V209.5H567.37V213.27C577.77 214.18 578.94 214.96 578.94 226.01V277.62C578.94 288.67 577.77 289.45 567.37 290.23V294H602.6ZM674.107 294V290.49C666.697 289.58 665.917 289.19 665.917 280.48V255.39C665.917 242.78 659.547 235.5 649.147 235.5C645.377 235.5 642.257 236.93 638.487 239.4C635.237 241.48 632.507 243.43 629.907 245.38V235.11C623.797 237.58 617.297 239.27 610.797 240.44V243.56C617.687 244.86 618.467 245.25 618.467 253.44V280.35C618.467 288.93 617.817 289.58 609.237 290.49V294H637.967V290.49C630.687 289.71 629.907 289.19 629.907 280.48V249.8C633.677 246.55 638.487 243.56 643.297 243.56C651.227 243.56 654.607 248.89 654.607 257.99V279.7C654.607 288.8 653.697 289.71 646.417 290.49V294H674.107ZM718.043 251.75C717.653 248.76 716.223 240.7 715.183 237.84C712.453 236.67 708.943 235.5 703.353 235.5C691.133 235.5 683.203 243.3 683.203 252.66C683.203 262.8 692.173 267.22 699.713 270.73C706.473 273.98 709.853 276.97 709.853 282.43C709.853 287.63 705.693 291.14 701.013 291.14C693.083 291.14 687.233 283.34 684.893 274.89L681.253 275.41C681.383 280.35 682.553 289.32 683.463 291.14C685.803 293.09 691.913 295.56 698.673 295.56C709.203 295.56 720.383 289.45 720.383 277.36C720.383 268.13 713.753 263.58 703.743 259.42C697.763 256.82 693.083 253.83 693.083 248.37C693.083 243.43 696.463 239.79 701.143 239.79C707.513 239.79 711.933 244.99 714.533 252.66L718.043 251.75ZM776.144 279.31C770.424 284.64 766.264 286.2 760.804 286.2C753.784 286.2 741.434 280.22 741.434 262.28C741.434 248.63 748.584 241.87 756.514 241.87C760.934 241.87 765.354 243.56 769.644 247.46C770.684 248.5 771.334 248.89 772.114 248.89C773.674 248.89 776.664 245.9 776.664 242.91C776.664 241.48 776.274 240.31 774.454 238.88C772.504 237.19 768.214 235.5 763.014 235.5H762.884C757.944 235.5 750.014 237.58 742.994 243.04C734.414 249.54 729.864 258.38 729.864 268.26C729.864 282.3 739.614 295.56 756.384 295.56C764.054 295.56 772.634 289.84 778.484 282.17L776.144 279.31ZM804.594 249.28V235.24C797.964 237.84 791.984 239.4 785.354 240.44V243.43C792.504 244.6 793.154 244.99 793.154 253.31V280.48C793.154 288.93 792.244 289.71 784.314 290.49V294H815.254V290.49C805.244 289.71 804.594 288.93 804.594 280.48V256.56C807.324 249.67 811.224 246.29 814.344 246.29C816.554 246.29 818.114 247.07 820.064 248.89C820.844 249.67 822.014 249.93 823.574 249.28C826.304 247.98 828.124 245.25 828.124 242.26C828.124 239.01 825.004 235.5 820.324 235.5C814.344 235.5 808.884 242.39 804.854 249.28H804.594ZM847.733 224.71C851.633 224.71 854.753 221.46 854.753 217.69C854.753 213.53 851.633 210.41 847.863 210.41C843.963 210.41 840.713 213.53 840.713 217.69C840.713 221.46 843.963 224.71 847.733 224.71ZM863.333 294V290.49C855.013 289.71 854.233 288.93 854.233 280.09V235.24C848.253 237.58 841.623 239.27 834.863 240.31V243.56C842.273 244.73 842.793 245.25 842.793 253.44V280.09C842.793 288.93 841.883 289.71 833.823 290.49V294H863.333ZM916.43 279.18C910.58 284.64 906.55 286.2 900.83 286.2C894.2 286.2 881.59 280.87 881.59 262.28C881.72 247.59 889.65 241.87 896.41 241.87C901.09 241.87 905.25 243.56 909.67 247.46C910.71 248.5 911.36 248.89 912.14 248.89C913.83 248.89 916.82 245.64 916.95 242.91C917.08 241.48 916.56 240.18 915 239.01C912.4 236.8 906.94 235.5 903.3 235.5C898.49 235.5 890.95 237.06 883.15 243.04C874.83 249.41 870.02 258.51 870.02 268.52C870.02 283.34 880.42 294.91 895.63 295.56L891.73 300.5C889.39 303.62 890.04 305.31 893.29 308.43C894.59 309.73 896.15 311.29 896.02 313.37C896.02 315.97 893.55 318.96 888.35 321.3L889.91 324.68C899.01 321.69 904.73 316.75 904.73 311.42C904.73 308.69 903.3 306.09 899.92 302.71C897.84 300.5 897.32 299.46 898.88 297.38L900.57 294.91C907.2 293.48 913.44 288.8 918.77 282.17L916.43 279.18ZM939.427 226.53C941.247 222.11 943.067 220.16 945.277 220.16C947.357 220.16 949.047 220.94 951.517 222.24C954.637 224.06 957.237 225.36 960.097 225.36C963.347 225.36 967.507 223.15 970.497 213.27L967.247 211.45C965.557 215.09 963.867 217.3 961.397 217.3C959.317 217.3 957.237 216.26 954.377 214.83C950.607 212.88 948.917 212.23 946.707 212.23C943.067 212.23 938.907 215.35 936.047 224.32L939.427 226.53ZM953.727 235.5C941.377 235.5 924.737 245.38 924.737 266.83C924.737 281.13 935.267 295.56 953.597 295.56C966.857 295.56 982.067 285.55 982.067 264.49C982.067 248.63 970.107 235.5 953.857 235.5H953.727ZM952.167 239.92C962.957 239.92 968.807 251.88 968.807 267.61C968.807 285.68 962.437 291.14 955.027 291.14C944.627 291.14 937.997 278.92 937.997 262.54C937.997 247.72 944.627 239.92 952.037 239.92H952.167ZM1037.77 279.83C1033.09 284.12 1028.15 286.2 1022.95 286.2C1013.85 286.2 1004.1 278.92 1003.84 261.89C1018.92 261.37 1035.17 260.07 1037.25 259.81C1039.85 259.29 1040.37 258.12 1040.37 255.52C1040.5 245.25 1031.66 235.5 1020.61 235.5H1020.48C1013.85 235.5 1006.83 239.01 1001.37 244.99C996.037 250.71 992.657 258.77 992.657 267.87C992.657 282.56 1002.02 295.56 1018.27 295.56C1022.56 295.56 1031.66 293.22 1039.85 282.69L1037.77 279.83ZM1017.62 240.31C1024.38 240.31 1028.54 246.68 1028.41 253.44C1028.41 255.39 1027.63 256.04 1025.42 256.04C1018.27 256.3 1011.51 256.43 1004.62 256.43C1006.31 245.9 1011.9 240.31 1017.49 240.31H1017.62ZM1085.45 251.75C1085.06 248.76 1083.63 240.7 1082.59 237.84C1079.86 236.67 1076.35 235.5 1070.76 235.5C1058.54 235.5 1050.61 243.3 1050.61 252.66C1050.61 262.8 1059.58 267.22 1067.12 270.73C1073.88 273.98 1077.26 276.97 1077.26 282.43C1077.26 287.63 1073.1 291.14 1068.42 291.14C1060.49 291.14 1054.64 283.34 1052.3 274.89L1048.66 275.41C1048.79 280.35 1049.96 289.32 1050.87 291.14C1053.21 293.09 1059.32 295.56 1066.08 295.56C1076.61 295.56 1087.79 289.45 1087.79 277.36C1087.79 268.13 1081.16 263.58 1071.15 259.42C1065.17 256.82 1060.49 253.83 1060.49 248.37C1060.49 243.43 1063.87 239.79 1068.55 239.79C1074.92 239.79 1079.34 244.99 1081.94 252.66L1085.45 251.75Z" fill="url(#paint75_linear_279_12)"/>
<defs>
<linearGradient id="paint0_linear_279_12" x1="1484.15" y1="216.592" x2="1652.58" y2="216.592" gradientUnits="userSpaceOnUse">
<stop stop-color="#B28E3C"/>
<stop offset="0.1507" stop-color="#B28E3C"/>
<stop offset="0.4873" stop-color="#C39B30"/>
<stop offset="0.7517" stop-color="#B28E3C"/>
<stop offset="1" stop-color="#C08E21"/>
</linearGradient>
<linearGradient id="paint1_linear_279_12" x1="1484.28" y1="176.222" x2="1652.58" y2="176.222" gradientUnits="userSpaceOnUse">
<stop stop-color="#B28E3C"/>
<stop offset="0.1507" stop-color="#B28E3C"/>
<stop offset="0.4873" stop-color="#C39B30"/>
<stop offset="0.7517" stop-color="#B28E3C"/>
<stop offset="1" stop-color="#C08E21"/>
</linearGradient>
<linearGradient id="paint2_linear_279_12" x1="1320.19" y1="117.077" x2="1488.54" y2="117.077" gradientUnits="userSpaceOnUse">
<stop stop-color="#B28E3C"/>
<stop offset="0.1507" stop-color="#B28E3C"/>
<stop offset="0.4873" stop-color="#C39B30"/>
<stop offset="0.7517" stop-color="#B28E3C"/>
<stop offset="1" stop-color="#C08E21"/>
</linearGradient>
<linearGradient id="paint3_linear_279_12" x1="-nan" y1="-nan" x2="-nan" y2="-nan" gradientUnits="userSpaceOnUse">
<stop stop-color="#B28E3C"/>
<stop offset="0.1507" stop-color="#B28E3C"/>
<stop offset="0.4873" stop-color="#C39B30"/>
<stop offset="0.7517" stop-color="#B28E3C"/>
<stop offset="1" stop-color="#C08E21"/>
</linearGradient>
<linearGradient id="paint4_linear_279_12" x1="1466.06" y1="133.558" x2="1466.06" y2="34.6822" gradientUnits="userSpaceOnUse">
<stop stop-color="#B28E3C"/>
<stop offset="0.1507" stop-color="#B28E3C"/>
<stop offset="0.4873" stop-color="#C39B30"/>
<stop offset="0.7517" stop-color="#B28E3C"/>
<stop offset="1" stop-color="#C08E21"/>
</linearGradient>
<linearGradient id="paint5_linear_279_12" x1="-nan" y1="-nan" x2="-nan" y2="-nan" gradientUnits="userSpaceOnUse">
<stop stop-color="#B28E3C"/>
<stop offset="0.1507" stop-color="#B28E3C"/>
<stop offset="0.4873" stop-color="#C39B30"/>
<stop offset="0.7517" stop-color="#B28E3C"/>
<stop offset="1" stop-color="#C08E21"/>
</linearGradient>
<linearGradient id="paint6_linear_279_12" x1="-nan" y1="-nan" x2="-nan" y2="-nan" gradientUnits="userSpaceOnUse">
<stop stop-color="#B28E3C"/>
<stop offset="0.1507" stop-color="#B28E3C"/>
<stop offset="0.4873" stop-color="#C39B30"/>
<stop offset="0.7517" stop-color="#B28E3C"/>
<stop offset="1" stop-color="#C08E21"/>
</linearGradient>
<linearGradient id="paint7_linear_279_12" x1="-nan" y1="-nan" x2="-nan" y2="-nan" gradientUnits="userSpaceOnUse">
<stop stop-color="#B28E3C"/>
<stop offset="0.1507" stop-color="#B28E3C"/>
<stop offset="0.4873" stop-color="#C39B30"/>
<stop offset="0.7517" stop-color="#B28E3C"/>
<stop offset="1" stop-color="#C08E21"/>
</linearGradient>
<linearGradient id="paint8_linear_279_12" x1="-nan" y1="-nan" x2="-nan" y2="-nan" gradientUnits="userSpaceOnUse">
<stop stop-color="#B28E3C"/>
<stop offset="0.1507" stop-color="#B28E3C"/>
<stop offset="0.4873" stop-color="#C39B30"/>
<stop offset="0.7517" stop-color="#B28E3C"/>
<stop offset="1" stop-color="#C08E21"/>
</linearGradient>
<linearGradient id="paint9_linear_279_12" x1="1352.77" y1="98.0534" x2="1352.77" y2="32.9269" gradientUnits="userSpaceOnUse">
<stop stop-color="#B28E3C"/>
<stop offset="0.1507" stop-color="#B28E3C"/>
<stop offset="0.4873" stop-color="#C39B30"/>
<stop offset="0.7517" stop-color="#B28E3C"/>
<stop offset="1" stop-color="#C08E21"/>
</linearGradient>
<linearGradient id="paint10_linear_279_12" x1="-nan" y1="-nan" x2="-nan" y2="-nan" gradientUnits="userSpaceOnUse">
<stop stop-color="#B28E3C"/>
<stop offset="0.1507" stop-color="#B28E3C"/>
<stop offset="0.4873" stop-color="#C39B30"/>
<stop offset="0.7517" stop-color="#B28E3C"/>
<stop offset="1" stop-color="#C08E21"/>
</linearGradient>
<linearGradient id="paint11_linear_279_12" x1="1355.18" y1="230.84" x2="1355.18" y2="300.251" gradientUnits="userSpaceOnUse">
<stop stop-color="#B28E3C"/>
<stop offset="0.1507" stop-color="#B28E3C"/>
<stop offset="0.4873" stop-color="#C39B30"/>
<stop offset="0.7517" stop-color="#B28E3C"/>
<stop offset="1" stop-color="#C08E21"/>
</linearGradient>
<linearGradient id="paint12_linear_279_12" x1="1436.65" y1="199.787" x2="1436.65" y2="300.388" gradientUnits="userSpaceOnUse">
<stop stop-color="#B28E3C"/>
<stop offset="0.1507" stop-color="#B28E3C"/>
<stop offset="0.4873" stop-color="#C39B30"/>
<stop offset="0.7517" stop-color="#B28E3C"/>
<stop offset="1" stop-color="#C08E21"/>
</linearGradient>
<linearGradient id="paint13_linear_279_12" x1="1488.67" y1="282.065" x2="1320.37" y2="282.065" gradientUnits="userSpaceOnUse">
<stop stop-color="#B28E3C"/>
<stop offset="0.1507" stop-color="#B28E3C"/>
<stop offset="0.4873" stop-color="#C39B30"/>
<stop offset="0.7517" stop-color="#B28E3C"/>
<stop offset="1" stop-color="#C08E21"/>
</linearGradient>
<linearGradient id="paint14_linear_279_12" x1="-nan" y1="-nan" x2="-nan" y2="-nan" gradientUnits="userSpaceOnUse">
<stop stop-color="#B28E3C"/>
<stop offset="0.1507" stop-color="#B28E3C"/>
<stop offset="0.4873" stop-color="#C39B30"/>
<stop offset="0.7517" stop-color="#B28E3C"/>
<stop offset="1" stop-color="#C08E21"/>
</linearGradient>
<linearGradient id="paint15_linear_279_12" x1="826.471" y1="640.322" x2="826.923" y2="-143.23" gradientUnits="userSpaceOnUse">
<stop stop-color="#B28E3C"/>
<stop offset="0.1507" stop-color="#B28E3C"/>
<stop offset="0.4873" stop-color="#C39B30"/>
<stop offset="0.7517" stop-color="#B28E3C"/>
<stop offset="1" stop-color="#C08E21"/>
</linearGradient>
<linearGradient id="paint16_linear_279_12" x1="414.522" y1="363.277" x2="414.522" y2="696.409" gradientUnits="userSpaceOnUse">
<stop stop-color="#B28E3C"/>
<stop offset="0.1507" stop-color="#B28E3C"/>
<stop offset="0.4873" stop-color="#C39B30"/>
<stop offset="0.7517" stop-color="#B28E3C"/>
<stop offset="1" stop-color="#C08E21"/>
</linearGradient>
<linearGradient id="paint17_linear_279_12" x1="414.534" y1="429.237" x2="414.534" y2="513.43" gradientUnits="userSpaceOnUse">
<stop stop-color="#B28E3C"/>
<stop offset="0.1507" stop-color="#B28E3C"/>
<stop offset="0.4873" stop-color="#C39B30"/>
<stop offset="0.7517" stop-color="#B28E3C"/>
<stop offset="1" stop-color="#C08E21"/>
</linearGradient>
<linearGradient id="paint18_linear_279_12" x1="330.319" y1="570.968" x2="416.281" y2="571.031" gradientUnits="userSpaceOnUse">
<stop stop-color="#B28E3C"/>
<stop offset="0.1507" stop-color="#B28E3C"/>
<stop offset="0.4873" stop-color="#C39B30"/>
<stop offset="0.7517" stop-color="#B28E3C"/>
<stop offset="1" stop-color="#C08E21"/>
</linearGradient>
<linearGradient id="paint19_linear_279_12" x1="414.462" y1="528.541" x2="414.462" y2="695.892" gradientUnits="userSpaceOnUse">
<stop stop-color="#B28E3C"/>
<stop offset="0.1507" stop-color="#B28E3C"/>
<stop offset="0.4873" stop-color="#C39B30"/>
<stop offset="0.7517" stop-color="#B28E3C"/>
<stop offset="1" stop-color="#C08E21"/>
</linearGradient>
<linearGradient id="paint20_linear_279_12" x1="455.653" y1="610.458" x2="455.653" y2="614.035" gradientUnits="userSpaceOnUse">
<stop stop-color="#B28E3C"/>
<stop offset="0.1507" stop-color="#B28E3C"/>
<stop offset="0.4873" stop-color="#C39B30"/>
<stop offset="0.7517" stop-color="#B28E3C"/>
<stop offset="1" stop-color="#C08E21"/>
</linearGradient>
<linearGradient id="paint21_linear_279_12" x1="455.683" y1="528.115" x2="455.683" y2="614.004" gradientUnits="userSpaceOnUse">
<stop stop-color="#B28E3C"/>
<stop offset="0.1507" stop-color="#B28E3C"/>
<stop offset="0.4873" stop-color="#C39B30"/>
<stop offset="0.7517" stop-color="#B28E3C"/>
<stop offset="1" stop-color="#C08E21"/>
</linearGradient>
<linearGradient id="paint22_linear_279_12" x1="414.594" y1="429.177" x2="414.594" y2="432.813" gradientUnits="userSpaceOnUse">
<stop stop-color="#B28E3C"/>
<stop offset="0.1507" stop-color="#B28E3C"/>
<stop offset="0.4873" stop-color="#C39B30"/>
<stop offset="0.7517" stop-color="#B28E3C"/>
<stop offset="1" stop-color="#C08E21"/>
</linearGradient>
<linearGradient id="paint23_linear_279_12" x1="-nan" y1="-nan" x2="-nan" y2="-nan" gradientUnits="userSpaceOnUse">
<stop stop-color="#B28E3C"/>
<stop offset="0.1507" stop-color="#B28E3C"/>
<stop offset="0.4873" stop-color="#C39B30"/>
<stop offset="0.7517" stop-color="#B28E3C"/>
<stop offset="1" stop-color="#C08E21"/>
</linearGradient>
<linearGradient id="paint24_linear_279_12" x1="-nan" y1="-nan" x2="-nan" y2="-nan" gradientUnits="userSpaceOnUse">
<stop stop-color="#B28E3C"/>
<stop offset="0.1507" stop-color="#B28E3C"/>
<stop offset="0.4873" stop-color="#C39B30"/>
<stop offset="0.7517" stop-color="#B28E3C"/>
<stop offset="1" stop-color="#C08E21"/>
</linearGradient>
<linearGradient id="paint25_linear_279_12" x1="-nan" y1="-nan" x2="-nan" y2="-nan" gradientUnits="userSpaceOnUse">
<stop stop-color="#B28E3C"/>
<stop offset="0.1507" stop-color="#B28E3C"/>
<stop offset="0.4873" stop-color="#C39B30"/>
<stop offset="0.7517" stop-color="#B28E3C"/>
<stop offset="1" stop-color="#C08E21"/>
</linearGradient>
<linearGradient id="paint26_linear_279_12" x1="-nan" y1="-nan" x2="-nan" y2="-nan" gradientUnits="userSpaceOnUse">
<stop stop-color="#B28E3C"/>
<stop offset="0.1507" stop-color="#B28E3C"/>
<stop offset="0.4873" stop-color="#C39B30"/>
<stop offset="0.7517" stop-color="#B28E3C"/>
<stop offset="1" stop-color="#C08E21"/>
</linearGradient>
<linearGradient id="paint27_linear_279_12" x1="-nan" y1="-nan" x2="-nan" y2="-nan" gradientUnits="userSpaceOnUse">
<stop stop-color="#B28E3C"/>
<stop offset="0.1507" stop-color="#B28E3C"/>
<stop offset="0.4873" stop-color="#C39B30"/>
<stop offset="0.7517" stop-color="#B28E3C"/>
<stop offset="1" stop-color="#C08E21"/>
</linearGradient>
<linearGradient id="paint28_linear_279_12" x1="-nan" y1="-nan" x2="-nan" y2="-nan" gradientUnits="userSpaceOnUse">
<stop stop-color="#B28E3C"/>
<stop offset="0.1507" stop-color="#B28E3C"/>
<stop offset="0.4873" stop-color="#C39B30"/>
<stop offset="0.7517" stop-color="#B28E3C"/>
<stop offset="1" stop-color="#C08E21"/>
</linearGradient>
<linearGradient id="paint29_linear_279_12" x1="-nan" y1="-nan" x2="-nan" y2="-nan" gradientUnits="userSpaceOnUse">
<stop stop-color="#B28E3C"/>
<stop offset="0.1507" stop-color="#B28E3C"/>
<stop offset="0.4873" stop-color="#C39B30"/>
<stop offset="0.7517" stop-color="#B28E3C"/>
<stop offset="1" stop-color="#C08E21"/>
</linearGradient>
<linearGradient id="paint30_linear_279_12" x1="1488.21" y1="447.459" x2="1155.08" y2="447.215" gradientUnits="userSpaceOnUse">
<stop stop-color="#B28E3C"/>
<stop offset="0.1507" stop-color="#B28E3C"/>
<stop offset="0.4873" stop-color="#C39B30"/>
<stop offset="0.7517" stop-color="#B28E3C"/>
<stop offset="1" stop-color="#C08E21"/>
</linearGradient>
<linearGradient id="paint31_linear_279_12" x1="1221.04" y1="447.325" x2="1305.23" y2="447.325" gradientUnits="userSpaceOnUse">
<stop stop-color="#B28E3C"/>
<stop offset="0.1507" stop-color="#B28E3C"/>
<stop offset="0.4873" stop-color="#C39B30"/>
<stop offset="0.7517" stop-color="#B28E3C"/>
<stop offset="1" stop-color="#C08E21"/>
</linearGradient>
<linearGradient id="paint32_linear_279_12" x1="1362.83" y1="445.578" x2="1362.77" y2="531.552" gradientUnits="userSpaceOnUse">
<stop stop-color="#B28E3C"/>
<stop offset="0.1507" stop-color="#B28E3C"/>
<stop offset="0.4873" stop-color="#C39B30"/>
<stop offset="0.7517" stop-color="#B28E3C"/>
<stop offset="1" stop-color="#C08E21"/>
</linearGradient>
<linearGradient id="paint33_linear_279_12" x1="1320.34" y1="447.397" x2="1487.7" y2="447.397" gradientUnits="userSpaceOnUse">
<stop stop-color="#B28E3C"/>
<stop offset="0.1507" stop-color="#B28E3C"/>
<stop offset="0.4873" stop-color="#C39B30"/>
<stop offset="0.7517" stop-color="#B28E3C"/>
<stop offset="1" stop-color="#C08E21"/>
</linearGradient>
<linearGradient id="paint34_linear_279_12" x1="-nan" y1="-nan" x2="-nan" y2="-nan" gradientUnits="userSpaceOnUse">
<stop stop-color="#B28E3C"/>
<stop offset="0.1507" stop-color="#B28E3C"/>
<stop offset="0.4873" stop-color="#C39B30"/>
<stop offset="0.7517" stop-color="#B28E3C"/>
<stop offset="1" stop-color="#C08E21"/>
</linearGradient>
<linearGradient id="paint35_linear_279_12" x1="1319.92" y1="406.17" x2="1405.81" y2="406.17" gradientUnits="userSpaceOnUse">
<stop stop-color="#B28E3C"/>
<stop offset="0.1507" stop-color="#B28E3C"/>
<stop offset="0.4873" stop-color="#C39B30"/>
<stop offset="0.7517" stop-color="#B28E3C"/>
<stop offset="1" stop-color="#C08E21"/>
</linearGradient>
<linearGradient id="paint36_linear_279_12" x1="-nan" y1="-nan" x2="-nan" y2="-nan" gradientUnits="userSpaceOnUse">
<stop stop-color="#B28E3C"/>
<stop offset="0.1507" stop-color="#B28E3C"/>
<stop offset="0.4873" stop-color="#C39B30"/>
<stop offset="0.7517" stop-color="#B28E3C"/>
<stop offset="1" stop-color="#C08E21"/>
</linearGradient>
<linearGradient id="paint37_linear_279_12" x1="1241.67" y1="378.772" x2="1245.21" y2="378.772" gradientUnits="userSpaceOnUse">
<stop stop-color="#B28E3C"/>
<stop offset="0.1507" stop-color="#B28E3C"/>
<stop offset="0.4873" stop-color="#C39B30"/>
<stop offset="0.7517" stop-color="#B28E3C"/>
<stop offset="1" stop-color="#C08E21"/>
</linearGradient>
<linearGradient id="paint38_linear_279_12" x1="-nan" y1="-nan" x2="-nan" y2="-nan" gradientUnits="userSpaceOnUse">
<stop stop-color="#B28E3C"/>
<stop offset="0.1507" stop-color="#B28E3C"/>
<stop offset="0.4873" stop-color="#C39B30"/>
<stop offset="0.7517" stop-color="#B28E3C"/>
<stop offset="1" stop-color="#C08E21"/>
</linearGradient>
<linearGradient id="paint39_linear_279_12" x1="-nan" y1="-nan" x2="-nan" y2="-nan" gradientUnits="userSpaceOnUse">
<stop stop-color="#B28E3C"/>
<stop offset="0.1507" stop-color="#B28E3C"/>
<stop offset="0.4873" stop-color="#C39B30"/>
<stop offset="0.7517" stop-color="#B28E3C"/>
<stop offset="1" stop-color="#C08E21"/>
</linearGradient>
<linearGradient id="paint40_linear_279_12" x1="-nan" y1="-nan" x2="-nan" y2="-nan" gradientUnits="userSpaceOnUse">
<stop stop-color="#B28E3C"/>
<stop offset="0.1507" stop-color="#B28E3C"/>
<stop offset="0.4873" stop-color="#C39B30"/>
<stop offset="0.7517" stop-color="#B28E3C"/>
<stop offset="1" stop-color="#C08E21"/>
</linearGradient>
<linearGradient id="paint41_linear_279_12" x1="1404.06" y1="385.441" x2="1465.75" y2="385.441" gradientUnits="userSpaceOnUse">
<stop stop-color="#B28E3C"/>
<stop offset="0.1507" stop-color="#B28E3C"/>
<stop offset="0.4873" stop-color="#C39B30"/>
<stop offset="0.7517" stop-color="#B28E3C"/>
<stop offset="1" stop-color="#C08E21"/>
</linearGradient>
<linearGradient id="paint42_linear_279_12" x1="-nan" y1="-nan" x2="-nan" y2="-nan" gradientUnits="userSpaceOnUse">
<stop stop-color="#B28E3C"/>
<stop offset="0.1507" stop-color="#B28E3C"/>
<stop offset="0.4873" stop-color="#C39B30"/>
<stop offset="0.7517" stop-color="#B28E3C"/>
<stop offset="1" stop-color="#C08E21"/>
</linearGradient>
<linearGradient id="paint43_linear_279_12" x1="-nan" y1="-nan" x2="-nan" y2="-nan" gradientUnits="userSpaceOnUse">
<stop stop-color="#B28E3C"/>
<stop offset="0.1507" stop-color="#B28E3C"/>
<stop offset="0.4873" stop-color="#C39B30"/>
<stop offset="0.7517" stop-color="#B28E3C"/>
<stop offset="1" stop-color="#C08E21"/>
</linearGradient>
<linearGradient id="paint44_linear_279_12" x1="579.588" y1="363.012" x2="579.588" y2="531.355" gradientUnits="userSpaceOnUse">
<stop stop-color="#B28E3C"/>
<stop offset="0.1507" stop-color="#B28E3C"/>
<stop offset="0.4873" stop-color="#C39B30"/>
<stop offset="0.7517" stop-color="#B28E3C"/>
<stop offset="1" stop-color="#C08E21"/>
</linearGradient>
<linearGradient id="paint45_linear_279_12" x1="-nan" y1="-nan" x2="-nan" y2="-nan" gradientUnits="userSpaceOnUse">
<stop stop-color="#B28E3C"/>
<stop offset="0.1507" stop-color="#B28E3C"/>
<stop offset="0.4873" stop-color="#C39B30"/>
<stop offset="0.7517" stop-color="#B28E3C"/>
<stop offset="1" stop-color="#C08E21"/>
</linearGradient>
<linearGradient id="paint46_linear_279_12" x1="641.283" y1="463.669" x2="641.283" y2="364.768" gradientUnits="userSpaceOnUse">
<stop stop-color="#B28E3C"/>
<stop offset="0.1507" stop-color="#B28E3C"/>
<stop offset="0.4873" stop-color="#C39B30"/>
<stop offset="0.7517" stop-color="#B28E3C"/>
<stop offset="1" stop-color="#C08E21"/>
</linearGradient>
<linearGradient id="paint47_linear_279_12" x1="-nan" y1="-nan" x2="-nan" y2="-nan" gradientUnits="userSpaceOnUse">
<stop stop-color="#B28E3C"/>
<stop offset="0.1507" stop-color="#B28E3C"/>
<stop offset="0.4873" stop-color="#C39B30"/>
<stop offset="0.7517" stop-color="#B28E3C"/>
<stop offset="1" stop-color="#C08E21"/>
</linearGradient>
<linearGradient id="paint48_linear_279_12" x1="-nan" y1="-nan" x2="-nan" y2="-nan" gradientUnits="userSpaceOnUse">
<stop stop-color="#B28E3C"/>
<stop offset="0.1507" stop-color="#B28E3C"/>
<stop offset="0.4873" stop-color="#C39B30"/>
<stop offset="0.7517" stop-color="#B28E3C"/>
<stop offset="1" stop-color="#C08E21"/>
</linearGradient>
<linearGradient id="paint49_linear_279_12" x1="-nan" y1="-nan" x2="-nan" y2="-nan" gradientUnits="userSpaceOnUse">
<stop stop-color="#B28E3C"/>
<stop offset="0.1507" stop-color="#B28E3C"/>
<stop offset="0.4873" stop-color="#C39B30"/>
<stop offset="0.7517" stop-color="#B28E3C"/>
<stop offset="1" stop-color="#C08E21"/>
</linearGradient>
<linearGradient id="paint50_linear_279_12" x1="-nan" y1="-nan" x2="-nan" y2="-nan" gradientUnits="userSpaceOnUse">
<stop stop-color="#B28E3C"/>
<stop offset="0.1507" stop-color="#B28E3C"/>
<stop offset="0.4873" stop-color="#C39B30"/>
<stop offset="0.7517" stop-color="#B28E3C"/>
<stop offset="1" stop-color="#C08E21"/>
</linearGradient>
<linearGradient id="paint51_linear_279_12" x1="527.988" y1="428.155" x2="527.988" y2="363.012" gradientUnits="userSpaceOnUse">
<stop stop-color="#B28E3C"/>
<stop offset="0.1507" stop-color="#B28E3C"/>
<stop offset="0.4873" stop-color="#C39B30"/>
<stop offset="0.7517" stop-color="#B28E3C"/>
<stop offset="1" stop-color="#C08E21"/>
</linearGradient>
<linearGradient id="paint52_linear_279_12" x1="164.872" y1="249.243" x2="333.301" y2="249.243" gradientUnits="userSpaceOnUse">
<stop stop-color="#B28E3C"/>
<stop offset="0.1507" stop-color="#B28E3C"/>
<stop offset="0.4873" stop-color="#C39B30"/>
<stop offset="0.7517" stop-color="#B28E3C"/>
<stop offset="1" stop-color="#C08E21"/>
</linearGradient>
<linearGradient id="paint53_linear_279_12" x1="164.994" y1="208.904" x2="333.3" y2="208.904" gradientUnits="userSpaceOnUse">
<stop stop-color="#B28E3C"/>
<stop offset="0.1507" stop-color="#B28E3C"/>
<stop offset="0.4873" stop-color="#C39B30"/>
<stop offset="0.7517" stop-color="#B28E3C"/>
<stop offset="1" stop-color="#C08E21"/>
</linearGradient>
<linearGradient id="paint54_linear_279_12" x1="249.546" y1="0.259502" x2="249.423" y2="168.645" gradientUnits="userSpaceOnUse">
<stop stop-color="#B28E3C"/>
<stop offset="0.1507" stop-color="#B28E3C"/>
<stop offset="0.4873" stop-color="#C39B30"/>
<stop offset="0.7517" stop-color="#B28E3C"/>
<stop offset="1" stop-color="#C08E21"/>
</linearGradient>
<linearGradient id="paint55_linear_279_12" x1="331.862" y1="109.256" x2="167.07" y2="109.256" gradientUnits="userSpaceOnUse">
<stop stop-color="#B28E3C"/>
<stop offset="0.1507" stop-color="#B28E3C"/>
<stop offset="0.4873" stop-color="#C39B30"/>
<stop offset="0.7517" stop-color="#B28E3C"/>
<stop offset="1" stop-color="#C08E21"/>
</linearGradient>
<linearGradient id="paint56_linear_279_12" x1="-nan" y1="-nan" x2="-nan" y2="-nan" gradientUnits="userSpaceOnUse">
<stop stop-color="#B28E3C"/>
<stop offset="0.1507" stop-color="#B28E3C"/>
<stop offset="0.4873" stop-color="#C39B30"/>
<stop offset="0.7517" stop-color="#B28E3C"/>
<stop offset="1" stop-color="#C08E21"/>
</linearGradient>
<linearGradient id="paint57_linear_279_12" x1="271.718" y1="55.7282" x2="268.123" y2="55.7282" gradientUnits="userSpaceOnUse">
<stop stop-color="#B28E3C"/>
<stop offset="0.1507" stop-color="#B28E3C"/>
<stop offset="0.4873" stop-color="#C39B30"/>
<stop offset="0.7517" stop-color="#B28E3C"/>
<stop offset="1" stop-color="#C08E21"/>
</linearGradient>
<linearGradient id="paint58_linear_279_12" x1="333.235" y1="78.3639" x2="268.146" y2="78.3639" gradientUnits="userSpaceOnUse">
<stop stop-color="#B28E3C"/>
<stop offset="0.1507" stop-color="#B28E3C"/>
<stop offset="0.4873" stop-color="#C39B30"/>
<stop offset="0.7517" stop-color="#B28E3C"/>
<stop offset="1" stop-color="#C08E21"/>
</linearGradient>
<linearGradient id="paint59_linear_279_12" x1="271.718" y1="56.5205" x2="166.944" y2="56.5205" gradientUnits="userSpaceOnUse">
<stop stop-color="#B28E3C"/>
<stop offset="0.1507" stop-color="#B28E3C"/>
<stop offset="0.4873" stop-color="#C39B30"/>
<stop offset="0.7517" stop-color="#B28E3C"/>
<stop offset="1" stop-color="#C08E21"/>
</linearGradient>
<linearGradient id="paint60_linear_279_12" x1="331.844" y1="133.876" x2="167.052" y2="133.876" gradientUnits="userSpaceOnUse">
<stop stop-color="#B28E3C"/>
<stop offset="0.1507" stop-color="#B28E3C"/>
<stop offset="0.4873" stop-color="#C39B30"/>
<stop offset="0.7517" stop-color="#B28E3C"/>
<stop offset="1" stop-color="#C08E21"/>
</linearGradient>
<linearGradient id="paint61_linear_279_12" x1="333.297" y1="414.008" x2="164.868" y2="413.884" gradientUnits="userSpaceOnUse">
<stop stop-color="#B28E3C"/>
<stop offset="0.1507" stop-color="#B28E3C"/>
<stop offset="0.4873" stop-color="#C39B30"/>
<stop offset="0.7517" stop-color="#B28E3C"/>
<stop offset="1" stop-color="#C08E21"/>
</linearGradient>
<linearGradient id="paint62_linear_279_12" x1="249.094" y1="399.289" x2="249.094" y2="395.654" gradientUnits="userSpaceOnUse">
<stop stop-color="#B28E3C"/>
<stop offset="0.1507" stop-color="#B28E3C"/>
<stop offset="0.4873" stop-color="#C39B30"/>
<stop offset="0.7517" stop-color="#B28E3C"/>
<stop offset="1" stop-color="#C08E21"/>
</linearGradient>
<linearGradient id="paint63_linear_279_12" x1="310.739" y1="496.366" x2="310.739" y2="397.515" gradientUnits="userSpaceOnUse">
<stop stop-color="#B28E3C"/>
<stop offset="0.1507" stop-color="#B28E3C"/>
<stop offset="0.4873" stop-color="#C39B30"/>
<stop offset="0.7517" stop-color="#B28E3C"/>
<stop offset="1" stop-color="#C08E21"/>
</linearGradient>
<linearGradient id="paint64_linear_279_12" x1="-nan" y1="-nan" x2="-nan" y2="-nan" gradientUnits="userSpaceOnUse">
<stop stop-color="#B28E3C"/>
<stop offset="0.1507" stop-color="#B28E3C"/>
<stop offset="0.4873" stop-color="#C39B30"/>
<stop offset="0.7517" stop-color="#B28E3C"/>
<stop offset="1" stop-color="#C08E21"/>
</linearGradient>
<linearGradient id="paint65_linear_279_12" x1="-nan" y1="-nan" x2="-nan" y2="-nan" gradientUnits="userSpaceOnUse">
<stop stop-color="#B28E3C"/>
<stop offset="0.1507" stop-color="#B28E3C"/>
<stop offset="0.4873" stop-color="#C39B30"/>
<stop offset="0.7517" stop-color="#B28E3C"/>
<stop offset="1" stop-color="#C08E21"/>
</linearGradient>
<linearGradient id="paint66_linear_279_12" x1="-nan" y1="-nan" x2="-nan" y2="-nan" gradientUnits="userSpaceOnUse">
<stop stop-color="#B28E3C"/>
<stop offset="0.1507" stop-color="#B28E3C"/>
<stop offset="0.4873" stop-color="#C39B30"/>
<stop offset="0.7517" stop-color="#B28E3C"/>
<stop offset="1" stop-color="#C08E21"/>
</linearGradient>
<linearGradient id="paint67_linear_279_12" x1="228.459" y1="496.306" x2="228.459" y2="397.455" gradientUnits="userSpaceOnUse">
<stop stop-color="#B28E3C"/>
<stop offset="0.1507" stop-color="#B28E3C"/>
<stop offset="0.4873" stop-color="#C39B30"/>
<stop offset="0.7517" stop-color="#B28E3C"/>
<stop offset="1" stop-color="#C08E21"/>
</linearGradient>
<linearGradient id="paint68_linear_279_12" x1="197.456" y1="498.039" x2="197.456" y2="432.927" gradientUnits="userSpaceOnUse">
<stop stop-color="#B28E3C"/>
<stop offset="0.1507" stop-color="#B28E3C"/>
<stop offset="0.4873" stop-color="#C39B30"/>
<stop offset="0.7517" stop-color="#B28E3C"/>
<stop offset="1" stop-color="#C08E21"/>
</linearGradient>
<linearGradient id="paint69_linear_279_12" x1="0.0784885" y1="463.37" x2="168.435" y2="463.37" gradientUnits="userSpaceOnUse">
<stop stop-color="#B28E3C"/>
<stop offset="0.1507" stop-color="#B28E3C"/>
<stop offset="0.4873" stop-color="#C39B30"/>
<stop offset="0.7517" stop-color="#B28E3C"/>
<stop offset="1" stop-color="#C08E21"/>
</linearGradient>
<linearGradient id="paint70_linear_279_12" x1="99.0933" y1="348.151" x2="102.73" y2="348.151" gradientUnits="userSpaceOnUse">
<stop stop-color="#B28E3C"/>
<stop offset="0.1507" stop-color="#B28E3C"/>
<stop offset="0.4873" stop-color="#C39B30"/>
<stop offset="0.7517" stop-color="#B28E3C"/>
<stop offset="1" stop-color="#C08E21"/>
</linearGradient>
<linearGradient id="paint71_linear_279_12" x1="0.316123" y1="298.679" x2="69.7482" y2="298.679" gradientUnits="userSpaceOnUse">
<stop stop-color="#B28E3C"/>
<stop offset="0.1507" stop-color="#B28E3C"/>
<stop offset="0.4873" stop-color="#C39B30"/>
<stop offset="0.7517" stop-color="#B28E3C"/>
<stop offset="1" stop-color="#C08E21"/>
</linearGradient>
<linearGradient id="paint72_linear_279_12" x1="2.049" y1="380.14" x2="102.609" y2="380.14" gradientUnits="userSpaceOnUse">
<stop stop-color="#B28E3C"/>
<stop offset="0.1507" stop-color="#B28E3C"/>
<stop offset="0.4873" stop-color="#C39B30"/>
<stop offset="0.7517" stop-color="#B28E3C"/>
<stop offset="1" stop-color="#C08E21"/>
</linearGradient>
<linearGradient id="paint73_linear_279_12" x1="0.126838" y1="348.047" x2="168.555" y2="348.047" gradientUnits="userSpaceOnUse">
<stop stop-color="#B28E3C"/>
<stop offset="0.1507" stop-color="#B28E3C"/>
<stop offset="0.4873" stop-color="#C39B30"/>
<stop offset="0.7517" stop-color="#B28E3C"/>
<stop offset="1" stop-color="#C08E21"/>
</linearGradient>
<linearGradient id="paint74_linear_279_12" x1="-nan" y1="-nan" x2="-nan" y2="-nan" gradientUnits="userSpaceOnUse">
<stop stop-color="#B28E3C"/>
<stop offset="0.1507" stop-color="#B28E3C"/>
<stop offset="0.4873" stop-color="#C39B30"/>
<stop offset="0.7517" stop-color="#B28E3C"/>
<stop offset="1" stop-color="#C08E21"/>
</linearGradient>
<linearGradient id="paint75_linear_279_12" x1="351" y1="244.506" x2="1302.87" y2="244.506" gradientUnits="userSpaceOnUse">
<stop stop-color="#B28E3C"/>
<stop offset="0.1507" stop-color="#B28E3C"/>
<stop offset="0.4873" stop-color="#C39B30"/>
<stop offset="0.7517" stop-color="#B28E3C"/>
<stop offset="1" stop-color="#C08E21"/>
</linearGradient>
</defs>
</svg>
