<svg width="1440" height="934" viewBox="0 0 1440 934" fill="none" xmlns="http://www.w3.org/2000/svg">
<path d="M229.101 239.574L228.887 470.186L1218.67 470.757L1218.89 240.145L229.101 239.574Z" stroke="url(#paint0_linear_279_5)" stroke-width="3" stroke-miterlimit="10"/>
<path d="M62.9155 602H-101.824L-101.824 931.57H62.9155V602Z" stroke="url(#paint1_linear_279_5)" stroke-width="3" stroke-miterlimit="10"/>
<path d="M62.9155 783.22C62.9155 828.744 25.9941 865.48 -19.5423 865.48C-65.0786 865.48 -101.824 828.569 -101.824 783.044" stroke="url(#paint2_linear_279_5)" stroke-width="3" stroke-miterlimit="10"/>
<path d="M-19.4347 684.39L-19.4951 766.826L62.9626 766.887L63.023 684.45L-19.4347 684.39Z" stroke="url(#paint3_linear_279_5)" stroke-width="3" stroke-miterlimit="10"/>
<path d="M62.9155 766.873L-101.824 602" stroke="url(#paint4_linear_279_5)" stroke-width="3" stroke-miterlimit="10"/>
<path d="M62.7397 865.656L-102 865.48" stroke="url(#paint5_linear_279_5)" stroke-width="3" stroke-miterlimit="10"/>
<path d="M62.7399 845.091H37.9498H35.1367" stroke="url(#paint6_linear_279_5)" stroke-width="3" stroke-miterlimit="10"/>
<path d="M62.9153 820.307H54.4761" stroke="url(#paint7_linear_279_5)" stroke-width="3" stroke-miterlimit="10"/>
<path d="M228.479 272.611H63.7397V437.309H228.479V272.611Z" stroke="url(#paint8_linear_279_5)" stroke-width="3" stroke-miterlimit="10"/>
<path d="M228.655 272.787C228.655 318.312 191.734 355.048 146.197 355.048C100.661 355.048 63.9155 318.136 63.9155 272.611" stroke="url(#paint9_linear_279_5)" stroke-width="3" stroke-miterlimit="10"/>
<path d="M64.2915 107.803L64.1709 272.501L228.911 272.621L229.031 107.924L64.2915 107.803Z" stroke="url(#paint10_linear_279_5)" stroke-width="3" stroke-miterlimit="10"/>
<path d="M229.007 215.134L64.2671 214.958" stroke="url(#paint11_linear_279_5)" stroke-width="3" stroke-miterlimit="10"/>
<path d="M229.007 132.698H64.2671" stroke="url(#paint12_linear_279_5)" stroke-width="3" stroke-miterlimit="10"/>
<path d="M166.944 215.134L167.119 107.914" stroke="url(#paint13_linear_279_5)" stroke-width="3" stroke-miterlimit="10"/>
<path d="M197.887 215.134C214.88 215.134 228.655 201.284 228.655 184.199C228.655 167.113 214.88 153.263 197.887 153.263C180.895 153.263 167.12 167.113 167.12 184.199C167.12 201.284 180.895 215.134 197.887 215.134Z" stroke="url(#paint14_linear_279_5)" stroke-width="3" stroke-miterlimit="10"/>
<path d="M167.119 107.914C167.119 164.512 121.759 210.916 64.2671 214.959" stroke="url(#paint15_linear_279_5)" stroke-width="3" stroke-miterlimit="10"/>
<path d="M64.0913 239.566L229.007 239.742" stroke="url(#paint16_linear_279_5)" stroke-width="3" stroke-miterlimit="10"/>
<path d="M63.79 437.422L63.6694 602.119L228.409 602.24L228.53 437.543L63.79 437.422Z" stroke="url(#paint17_linear_279_5)" stroke-width="3" stroke-miterlimit="10"/>
<path d="M63.7397 503.223L228.655 503.398" stroke="url(#paint18_linear_279_5)" stroke-width="3" stroke-miterlimit="10"/>
<path d="M207.909 602.182L207.733 503.398" stroke="url(#paint19_linear_279_5)" stroke-width="3" stroke-miterlimit="10"/>
<path d="M187.163 602.182V503.223" stroke="url(#paint20_linear_279_5)" stroke-width="3" stroke-miterlimit="10"/>
<path d="M166.592 602.182V503.223" stroke="url(#paint21_linear_279_5)" stroke-width="3" stroke-miterlimit="10"/>
<path d="M146.022 602.182V503.223" stroke="url(#paint22_linear_279_5)" stroke-width="3" stroke-miterlimit="10"/>
<path d="M125.451 602.182L125.627 503.223" stroke="url(#paint23_linear_279_5)" stroke-width="3" stroke-miterlimit="10"/>
<path d="M94.5076 602.006C111.5 602.006 125.275 588.234 125.275 571.246C125.275 554.258 111.5 540.486 94.5076 540.486C77.515 540.486 63.7397 554.258 63.7397 571.246C63.7397 588.234 77.515 602.006 94.5076 602.006Z" stroke="url(#paint24_linear_279_5)" stroke-width="3" stroke-miterlimit="10"/>
<path d="M63.7397 536.268H-101V602.182H63.7397V536.268Z" stroke="url(#paint25_linear_279_5)" stroke-width="3" stroke-miterlimit="10"/>
<path d="M63.7397 371.395H-101V536.092H63.7397V371.395Z" stroke="url(#paint26_linear_279_5)" stroke-width="3" stroke-miterlimit="10"/>
<path d="M63.9155 437.484H-100.824" stroke="url(#paint27_linear_279_5)" stroke-width="3" stroke-miterlimit="10"/>
<path d="M1383.59 536.183H1548.51V371.31H1383.59V536.183Z" stroke="url(#paint28_linear_279_5)" stroke-width="3" stroke-miterlimit="10"/>
<path d="M1548.51 206.873V42L1383.59 42V206.873L1548.51 206.873Z" stroke="url(#paint29_linear_279_5)" stroke-width="3" stroke-miterlimit="10"/>
<path d="M1383.86 140.783H1548.6" stroke="url(#paint30_linear_279_5)" stroke-width="3" stroke-miterlimit="10"/>
<path d="M1414.62 103.52C1431.62 103.52 1445.39 89.7481 1445.39 72.7599C1445.39 55.7717 1431.62 42 1414.62 42C1397.63 42 1383.86 55.7717 1383.86 72.7599C1383.86 89.7481 1397.63 103.52 1414.62 103.52Z" stroke="url(#paint31_linear_279_5)" stroke-width="3" stroke-miterlimit="10"/>
<path d="M1218.94 239.742H1383.86" stroke="url(#paint32_linear_279_5)" stroke-width="3" stroke-miterlimit="10"/>
<path d="M1251.99 239.566C1270.15 239.566 1284.87 224.85 1284.87 206.697C1284.87 188.544 1270.15 173.828 1251.99 173.828C1233.84 173.828 1219.12 188.544 1219.12 206.697C1219.12 224.85 1233.84 239.566 1251.99 239.566Z" stroke="url(#paint33_linear_279_5)" stroke-width="3" stroke-miterlimit="10"/>
<path d="M1284.87 140.959C1284.87 195.624 1329 239.742 1383.68 239.742" stroke="url(#paint34_linear_279_5)" stroke-width="3" stroke-miterlimit="10"/>
<path d="M1383.68 305.526V140.829L1218.94 140.829V305.526H1383.68Z" stroke="url(#paint35_linear_279_5)" stroke-width="3" stroke-miterlimit="10"/>
<path d="M1284.87 305.481V140.959" stroke="url(#paint36_linear_279_5)" stroke-width="3" stroke-miterlimit="10"/>
<path d="M1284.7 536.092L1284.87 371.395" stroke="url(#paint37_linear_279_5)" stroke-width="3" stroke-miterlimit="10"/>
<path d="M1350.63 536.092C1368.78 536.092 1383.5 521.376 1383.5 503.223C1383.5 485.07 1368.78 470.354 1350.63 470.354C1332.47 470.354 1317.75 485.07 1317.75 503.223C1317.75 521.376 1332.47 536.092 1350.63 536.092Z" stroke="url(#paint38_linear_279_5)" stroke-width="3" stroke-miterlimit="10"/>
<path d="M1383.68 470.178C1329 470.178 1284.87 425.884 1284.87 371.395" stroke="url(#paint39_linear_279_5)" stroke-width="3" stroke-miterlimit="10"/>
<path d="M1218.89 536.124L1383.63 536.244L1383.75 371.547L1219.01 371.427L1218.89 536.124Z" stroke="url(#paint40_linear_279_5)" stroke-width="3" stroke-miterlimit="10"/>
<path d="M1218.94 470.178H1383.68" stroke="url(#paint41_linear_279_5)" stroke-width="3" stroke-miterlimit="10"/>
<path d="M1548.6 206.697H1383.86V371.395H1548.6V206.697Z" stroke="url(#paint42_linear_279_5)" stroke-width="3" stroke-miterlimit="10"/>
<path d="M1548.6 206.697C1548.6 252.222 1511.67 288.958 1466.14 288.958C1420.6 288.958 1383.86 252.046 1383.86 206.521" stroke="url(#paint43_linear_279_5)" stroke-width="3" stroke-miterlimit="10"/>
<path d="M1384.09 865.732L1548.83 865.853L1549.08 536.282L1384.34 536.162L1384.09 865.732Z" stroke="url(#paint44_linear_279_5)" stroke-width="3" stroke-miterlimit="10"/>
<path d="M1384.27 684.443C1384.27 638.918 1421.2 602.182 1466.73 602.182C1512.27 602.182 1549.01 639.094 1549.01 684.618" stroke="url(#paint45_linear_279_5)" stroke-width="3" stroke-miterlimit="10"/>
<path d="M1466.59 783.551L1466.65 701.115L1384.19 701.054L1384.13 783.491L1466.59 783.551Z" stroke="url(#paint46_linear_279_5)" stroke-width="3" stroke-miterlimit="10"/>
<path d="M1384.27 700.965L1548.84 865.838" stroke="url(#paint47_linear_279_5)" stroke-width="3" stroke-miterlimit="10"/>
<path d="M1384.27 602.182H1549.01" stroke="url(#paint48_linear_279_5)" stroke-width="3" stroke-miterlimit="10"/>
<path d="M1384.27 622.747H1409.24H1412.05" stroke="url(#paint49_linear_279_5)" stroke-width="3" stroke-miterlimit="10"/>
<path d="M1384.27 647.355H1392.71" stroke="url(#paint50_linear_279_5)" stroke-width="3" stroke-miterlimit="10"/>
<path d="M401.309 312.074V315.844C410.799 316.624 411.969 317.144 411.969 328.584V380.194C411.969 390.984 410.799 392.024 400.529 392.804V396.574H436.669V392.804C425.099 392.024 424.059 391.244 424.059 380.324V360.304L433.549 362.774C434.979 362.904 437.319 362.904 439.269 362.644C452.139 360.954 464.749 352.894 464.749 335.864C464.749 327.414 461.499 321.304 456.169 317.404C450.969 313.634 443.559 312.074 434.199 312.074H401.309ZM424.059 323.644C424.059 320.264 424.449 318.704 425.359 317.924C426.269 317.014 428.739 316.364 432.119 316.364C442.389 316.364 451.099 322.214 451.099 336.384C451.099 353.024 440.829 357.314 433.029 357.314C429.129 357.314 425.619 356.534 424.059 355.884V323.644ZM486.271 327.284C490.171 327.284 493.291 324.034 493.291 320.264C493.291 316.104 490.171 312.984 486.401 312.984C482.501 312.984 479.251 316.104 479.251 320.264C479.251 324.034 482.501 327.284 486.271 327.284ZM501.871 396.574V393.064C493.551 392.284 492.771 391.504 492.771 382.664V337.814C486.791 340.154 480.161 341.844 473.401 342.884V346.134C480.811 347.304 481.331 347.824 481.331 356.014V382.664C481.331 391.504 480.421 392.284 472.361 393.064V396.574H501.871ZM566.017 396.574V393.064C558.607 392.024 556.657 390.724 551.977 383.444L539.237 364.074C543.657 357.704 546.777 353.154 549.507 349.904C554.057 344.704 555.747 343.924 563.547 343.144V339.634H539.757V343.144C545.347 343.794 546.127 344.574 543.917 348.474C541.707 352.374 539.237 356.404 536.637 360.174L529.227 348.604C526.887 344.964 527.407 343.924 532.737 343.144V339.634H505.957V343.144C513.107 344.054 514.667 345.094 518.567 351.334L529.877 369.274C526.107 374.994 522.597 380.194 518.957 384.484C514.017 390.854 512.327 392.024 504.527 393.064V396.574H528.837V393.064C522.337 392.024 521.947 390.724 524.417 386.434C526.887 382.144 529.617 377.334 532.477 373.174L541.577 387.734C543.787 391.244 542.747 392.284 537.417 393.064V396.574H566.017ZM614.097 382.404C609.417 386.694 604.477 388.774 599.277 388.774C590.177 388.774 580.427 381.494 580.167 364.464C595.247 363.944 611.497 362.644 613.577 362.384C616.177 361.864 616.697 360.694 616.697 358.094C616.827 347.824 607.987 338.074 596.937 338.074H596.807C590.177 338.074 583.157 341.584 577.697 347.564C572.367 353.284 568.987 361.344 568.987 370.444C568.987 385.134 578.347 398.134 594.597 398.134C598.887 398.134 607.987 395.794 616.177 385.264L614.097 382.404ZM593.947 342.884C600.707 342.884 604.867 349.254 604.737 356.014C604.737 357.964 603.957 358.614 601.747 358.614C594.597 358.874 587.837 359.004 580.947 359.004C582.637 348.474 588.227 342.884 593.817 342.884H593.947ZM650.998 396.574V393.064C642.678 392.284 641.638 391.504 641.638 382.924V304.274C636.828 305.834 628.378 308.044 621.488 308.824V311.944C629.548 312.724 630.328 313.114 630.328 321.694V382.924C630.328 391.504 629.288 392.154 621.098 393.064V396.574H650.998ZM749.853 389.814L745.823 389.424C740.883 388.904 740.103 388.254 740.103 381.364V304.274C734.903 305.964 725.933 307.914 718.913 308.824V312.074C727.883 312.854 728.663 313.244 728.663 321.434V339.374C725.673 338.334 722.293 338.074 720.603 338.074C702.403 338.074 686.803 352.374 686.803 370.314C686.803 388.644 700.713 398.134 711.243 398.134C712.803 398.134 715.923 397.484 720.733 394.624L728.663 389.814V398.134C736.723 395.404 746.863 393.714 749.853 393.194V389.814ZM728.663 385.654C725.543 387.864 721.383 389.684 717.093 389.684C709.163 389.684 699.673 382.404 699.673 366.804C699.673 347.824 710.463 343.014 716.053 343.014C720.603 343.014 725.673 345.224 728.663 349.644V385.654ZM759.064 304.404C756.594 304.404 753.344 306.094 753.344 309.604C753.344 311.424 754.254 312.464 755.034 312.594C759.584 313.374 763.354 316.234 763.354 320.914C763.354 326.114 759.454 329.364 753.084 332.094L754.384 335.734C762.964 333.524 771.934 327.674 771.934 318.054C771.934 309.474 764.914 304.404 759.194 304.404H759.064ZM820.139 310.254C792.449 310.254 776.069 331.964 776.069 355.104C776.069 380.064 794.789 398.524 818.709 398.524C842.629 398.524 862.389 381.364 862.389 353.284C862.389 327.284 842.629 310.254 820.269 310.254H820.139ZM817.539 314.934C834.309 314.934 847.829 329.624 847.829 356.794C847.829 381.624 835.479 393.714 821.439 393.714C803.369 393.714 790.629 375.644 790.629 351.724C790.629 327.674 803.369 314.934 817.409 314.934H817.539ZM936.474 390.074L933.094 389.814C928.154 389.424 927.114 388.514 927.114 381.884V338.724C925.034 339.114 921.654 339.764 917.884 340.154C913.984 340.544 909.564 340.934 905.924 341.064V344.314L910.474 345.094C914.634 345.744 915.674 346.524 915.674 353.284V383.834C911.514 387.864 907.094 389.684 902.544 389.684C896.954 389.684 891.494 386.564 891.494 375.514V357.834C891.494 349.254 891.624 343.014 892.014 338.724C889.544 339.114 885.774 339.764 882.134 340.154C878.494 340.544 875.114 340.934 872.254 341.064V344.314L875.894 345.094C879.144 345.744 880.184 346.524 880.184 353.284V378.894C880.184 392.544 887.334 398.134 896.434 398.134C899.944 398.134 902.934 396.964 906.704 394.754C910.214 392.674 912.814 390.594 915.674 388.384V397.354L916.584 398.134C919.314 397.354 922.694 396.444 926.204 395.534C929.844 394.624 933.484 393.844 936.474 393.454V390.074ZM962.624 351.854V337.814C955.994 340.414 950.014 341.974 943.384 343.014V346.004C950.534 347.174 951.184 347.564 951.184 355.884V383.054C951.184 391.504 950.274 392.284 942.344 393.064V396.574H973.284V393.064C963.274 392.284 962.624 391.504 962.624 383.054V359.134C965.354 352.244 969.254 348.864 972.374 348.864C974.584 348.864 976.144 349.644 978.094 351.464C978.874 352.244 980.044 352.504 981.604 351.854C984.334 350.554 986.154 347.824 986.154 344.834C986.154 341.584 983.034 338.074 978.354 338.074C972.374 338.074 966.914 344.964 962.884 351.854H962.624ZM1019.33 338.074C1006.98 338.074 990.345 347.954 990.345 369.404C990.345 383.704 1000.87 398.134 1019.2 398.134C1032.46 398.134 1047.67 388.124 1047.67 367.064C1047.67 351.204 1035.71 338.074 1019.46 338.074H1019.33ZM1017.77 342.494C1028.56 342.494 1034.41 354.454 1034.41 370.184C1034.41 388.254 1028.04 393.714 1020.63 393.714C1010.23 393.714 1003.6 381.494 1003.6 365.114C1003.6 350.294 1010.23 342.494 1017.64 342.494H1017.77Z" fill="url(#paint51_linear_279_5)"/>
<path d="M228.915 107.873L228.915 -57L64 -57L64 107.873L228.915 107.873Z" stroke="url(#paint52_linear_279_5)" stroke-width="3" stroke-miterlimit="10"/>
<path d="M64.2612 41.7833H229.001" stroke="url(#paint53_linear_279_5)" stroke-width="3" stroke-miterlimit="10"/>
<path d="M208.43 -57L208.254 41.7832" stroke="url(#paint54_linear_279_5)" stroke-width="3" stroke-miterlimit="10"/>
<path d="M187.684 -57V41.7832" stroke="url(#paint55_linear_279_5)" stroke-width="3" stroke-miterlimit="10"/>
<path d="M166.938 -57V41.7832" stroke="url(#paint56_linear_279_5)" stroke-width="3" stroke-miterlimit="10"/>
<path d="M146.367 -57V41.7832" stroke="url(#paint57_linear_279_5)" stroke-width="3" stroke-miterlimit="10"/>
<path d="M125.973 -57V41.7832" stroke="url(#paint58_linear_279_5)" stroke-width="3" stroke-miterlimit="10"/>
<path d="M95.029 4.51981C112.022 4.51981 125.797 -9.25187 125.797 -26.2401C125.797 -43.2283 112.022 -57 95.029 -57C78.0364 -57 64.2612 -43.2283 64.2612 -26.2401C64.2612 -9.25187 78.0364 4.51981 95.029 4.51981Z" stroke="url(#paint59_linear_279_5)" stroke-width="3" stroke-miterlimit="10"/>
<defs>
<linearGradient id="paint0_linear_279_5" x1="723.581" y1="746.896" x2="724.033" y2="-36.6557" gradientUnits="userSpaceOnUse">
<stop stop-color="#B28E3C"/>
<stop offset="0.1507" stop-color="#B28E3C"/>
<stop offset="0.4873" stop-color="#C39B30"/>
<stop offset="0.7517" stop-color="#B28E3C"/>
<stop offset="1" stop-color="#C08E21"/>
</linearGradient>
<linearGradient id="paint1_linear_279_5" x1="-19.5106" y1="933.331" x2="-19.5106" y2="600.199" gradientUnits="userSpaceOnUse">
<stop stop-color="#B28E3C"/>
<stop offset="0.1507" stop-color="#B28E3C"/>
<stop offset="0.4873" stop-color="#C39B30"/>
<stop offset="0.7517" stop-color="#B28E3C"/>
<stop offset="1" stop-color="#C08E21"/>
</linearGradient>
<linearGradient id="paint2_linear_279_5" x1="-19.5226" y1="867.37" x2="-19.5226" y2="783.178" gradientUnits="userSpaceOnUse">
<stop stop-color="#B28E3C"/>
<stop offset="0.1507" stop-color="#B28E3C"/>
<stop offset="0.4873" stop-color="#C39B30"/>
<stop offset="0.7517" stop-color="#B28E3C"/>
<stop offset="1" stop-color="#C08E21"/>
</linearGradient>
<linearGradient id="paint3_linear_279_5" x1="64.7041" y1="725.64" x2="-21.2697" y2="725.577" gradientUnits="userSpaceOnUse">
<stop stop-color="#B28E3C"/>
<stop offset="0.1507" stop-color="#B28E3C"/>
<stop offset="0.4873" stop-color="#C39B30"/>
<stop offset="0.7517" stop-color="#B28E3C"/>
<stop offset="1" stop-color="#C08E21"/>
</linearGradient>
<linearGradient id="paint4_linear_279_5" x1="-19.4501" y1="768.067" x2="-19.4501" y2="600.715" gradientUnits="userSpaceOnUse">
<stop stop-color="#B28E3C"/>
<stop offset="0.1507" stop-color="#B28E3C"/>
<stop offset="0.4873" stop-color="#C39B30"/>
<stop offset="0.7517" stop-color="#B28E3C"/>
<stop offset="1" stop-color="#C08E21"/>
</linearGradient>
<linearGradient id="paint5_linear_279_5" x1="-19.5829" y1="867.431" x2="-19.5829" y2="863.794" gradientUnits="userSpaceOnUse">
<stop stop-color="#B28E3C"/>
<stop offset="0.1507" stop-color="#B28E3C"/>
<stop offset="0.4873" stop-color="#C39B30"/>
<stop offset="0.7517" stop-color="#B28E3C"/>
<stop offset="1" stop-color="#C08E21"/>
</linearGradient>
<linearGradient id="paint6_linear_279_5" x1="-nan" y1="-nan" x2="-nan" y2="-nan" gradientUnits="userSpaceOnUse">
<stop stop-color="#B28E3C"/>
<stop offset="0.1507" stop-color="#B28E3C"/>
<stop offset="0.4873" stop-color="#C39B30"/>
<stop offset="0.7517" stop-color="#B28E3C"/>
<stop offset="1" stop-color="#C08E21"/>
</linearGradient>
<linearGradient id="paint7_linear_279_5" x1="-nan" y1="-nan" x2="-nan" y2="-nan" gradientUnits="userSpaceOnUse">
<stop stop-color="#B28E3C"/>
<stop offset="0.1507" stop-color="#B28E3C"/>
<stop offset="0.4873" stop-color="#C39B30"/>
<stop offset="0.7517" stop-color="#B28E3C"/>
<stop offset="1" stop-color="#C08E21"/>
</linearGradient>
<linearGradient id="paint8_linear_279_5" x1="61.9816" y1="355.046" x2="230.41" y2="355.046" gradientUnits="userSpaceOnUse">
<stop stop-color="#B28E3C"/>
<stop offset="0.1507" stop-color="#B28E3C"/>
<stop offset="0.4873" stop-color="#C39B30"/>
<stop offset="0.7517" stop-color="#B28E3C"/>
<stop offset="1" stop-color="#C08E21"/>
</linearGradient>
<linearGradient id="paint9_linear_279_5" x1="62.1034" y1="314.708" x2="230.409" y2="314.708" gradientUnits="userSpaceOnUse">
<stop stop-color="#B28E3C"/>
<stop offset="0.1507" stop-color="#B28E3C"/>
<stop offset="0.4873" stop-color="#C39B30"/>
<stop offset="0.7517" stop-color="#B28E3C"/>
<stop offset="1" stop-color="#C08E21"/>
</linearGradient>
<linearGradient id="paint10_linear_279_5" x1="146.655" y1="106.063" x2="146.532" y2="274.448" gradientUnits="userSpaceOnUse">
<stop stop-color="#B28E3C"/>
<stop offset="0.1507" stop-color="#B28E3C"/>
<stop offset="0.4873" stop-color="#C39B30"/>
<stop offset="0.7517" stop-color="#B28E3C"/>
<stop offset="1" stop-color="#C08E21"/>
</linearGradient>
<linearGradient id="paint11_linear_279_5" x1="228.971" y1="215.059" x2="64.1797" y2="215.059" gradientUnits="userSpaceOnUse">
<stop stop-color="#B28E3C"/>
<stop offset="0.1507" stop-color="#B28E3C"/>
<stop offset="0.4873" stop-color="#C39B30"/>
<stop offset="0.7517" stop-color="#B28E3C"/>
<stop offset="1" stop-color="#C08E21"/>
</linearGradient>
<linearGradient id="paint12_linear_279_5" x1="-nan" y1="-nan" x2="-nan" y2="-nan" gradientUnits="userSpaceOnUse">
<stop stop-color="#B28E3C"/>
<stop offset="0.1507" stop-color="#B28E3C"/>
<stop offset="0.4873" stop-color="#C39B30"/>
<stop offset="0.7517" stop-color="#B28E3C"/>
<stop offset="1" stop-color="#C08E21"/>
</linearGradient>
<linearGradient id="paint13_linear_279_5" x1="168.827" y1="161.532" x2="165.232" y2="161.532" gradientUnits="userSpaceOnUse">
<stop stop-color="#B28E3C"/>
<stop offset="0.1507" stop-color="#B28E3C"/>
<stop offset="0.4873" stop-color="#C39B30"/>
<stop offset="0.7517" stop-color="#B28E3C"/>
<stop offset="1" stop-color="#C08E21"/>
</linearGradient>
<linearGradient id="paint14_linear_279_5" x1="230.344" y1="184.167" x2="165.255" y2="184.167" gradientUnits="userSpaceOnUse">
<stop stop-color="#B28E3C"/>
<stop offset="0.1507" stop-color="#B28E3C"/>
<stop offset="0.4873" stop-color="#C39B30"/>
<stop offset="0.7517" stop-color="#B28E3C"/>
<stop offset="1" stop-color="#C08E21"/>
</linearGradient>
<linearGradient id="paint15_linear_279_5" x1="168.827" y1="162.324" x2="64.0536" y2="162.324" gradientUnits="userSpaceOnUse">
<stop stop-color="#B28E3C"/>
<stop offset="0.1507" stop-color="#B28E3C"/>
<stop offset="0.4873" stop-color="#C39B30"/>
<stop offset="0.7517" stop-color="#B28E3C"/>
<stop offset="1" stop-color="#C08E21"/>
</linearGradient>
<linearGradient id="paint16_linear_279_5" x1="228.953" y1="239.68" x2="64.1616" y2="239.68" gradientUnits="userSpaceOnUse">
<stop stop-color="#B28E3C"/>
<stop offset="0.1507" stop-color="#B28E3C"/>
<stop offset="0.4873" stop-color="#C39B30"/>
<stop offset="0.7517" stop-color="#B28E3C"/>
<stop offset="1" stop-color="#C08E21"/>
</linearGradient>
<linearGradient id="paint17_linear_279_5" x1="230.406" y1="519.811" x2="61.9773" y2="519.687" gradientUnits="userSpaceOnUse">
<stop stop-color="#B28E3C"/>
<stop offset="0.1507" stop-color="#B28E3C"/>
<stop offset="0.4873" stop-color="#C39B30"/>
<stop offset="0.7517" stop-color="#B28E3C"/>
<stop offset="1" stop-color="#C08E21"/>
</linearGradient>
<linearGradient id="paint18_linear_279_5" x1="146.203" y1="505.092" x2="146.203" y2="501.457" gradientUnits="userSpaceOnUse">
<stop stop-color="#B28E3C"/>
<stop offset="0.1507" stop-color="#B28E3C"/>
<stop offset="0.4873" stop-color="#C39B30"/>
<stop offset="0.7517" stop-color="#B28E3C"/>
<stop offset="1" stop-color="#C08E21"/>
</linearGradient>
<linearGradient id="paint19_linear_279_5" x1="207.849" y1="602.169" x2="207.849" y2="503.318" gradientUnits="userSpaceOnUse">
<stop stop-color="#B28E3C"/>
<stop offset="0.1507" stop-color="#B28E3C"/>
<stop offset="0.4873" stop-color="#C39B30"/>
<stop offset="0.7517" stop-color="#B28E3C"/>
<stop offset="1" stop-color="#C08E21"/>
</linearGradient>
<linearGradient id="paint20_linear_279_5" x1="-nan" y1="-nan" x2="-nan" y2="-nan" gradientUnits="userSpaceOnUse">
<stop stop-color="#B28E3C"/>
<stop offset="0.1507" stop-color="#B28E3C"/>
<stop offset="0.4873" stop-color="#C39B30"/>
<stop offset="0.7517" stop-color="#B28E3C"/>
<stop offset="1" stop-color="#C08E21"/>
</linearGradient>
<linearGradient id="paint21_linear_279_5" x1="-nan" y1="-nan" x2="-nan" y2="-nan" gradientUnits="userSpaceOnUse">
<stop stop-color="#B28E3C"/>
<stop offset="0.1507" stop-color="#B28E3C"/>
<stop offset="0.4873" stop-color="#C39B30"/>
<stop offset="0.7517" stop-color="#B28E3C"/>
<stop offset="1" stop-color="#C08E21"/>
</linearGradient>
<linearGradient id="paint22_linear_279_5" x1="-nan" y1="-nan" x2="-nan" y2="-nan" gradientUnits="userSpaceOnUse">
<stop stop-color="#B28E3C"/>
<stop offset="0.1507" stop-color="#B28E3C"/>
<stop offset="0.4873" stop-color="#C39B30"/>
<stop offset="0.7517" stop-color="#B28E3C"/>
<stop offset="1" stop-color="#C08E21"/>
</linearGradient>
<linearGradient id="paint23_linear_279_5" x1="125.569" y1="602.109" x2="125.569" y2="503.258" gradientUnits="userSpaceOnUse">
<stop stop-color="#B28E3C"/>
<stop offset="0.1507" stop-color="#B28E3C"/>
<stop offset="0.4873" stop-color="#C39B30"/>
<stop offset="0.7517" stop-color="#B28E3C"/>
<stop offset="1" stop-color="#C08E21"/>
</linearGradient>
<linearGradient id="paint24_linear_279_5" x1="94.5654" y1="603.843" x2="94.5654" y2="538.73" gradientUnits="userSpaceOnUse">
<stop stop-color="#B28E3C"/>
<stop offset="0.1507" stop-color="#B28E3C"/>
<stop offset="0.4873" stop-color="#C39B30"/>
<stop offset="0.7517" stop-color="#B28E3C"/>
<stop offset="1" stop-color="#C08E21"/>
</linearGradient>
<linearGradient id="paint25_linear_279_5" x1="-102.812" y1="569.173" x2="65.5443" y2="569.173" gradientUnits="userSpaceOnUse">
<stop stop-color="#B28E3C"/>
<stop offset="0.1507" stop-color="#B28E3C"/>
<stop offset="0.4873" stop-color="#C39B30"/>
<stop offset="0.7517" stop-color="#B28E3C"/>
<stop offset="1" stop-color="#C08E21"/>
</linearGradient>
<linearGradient id="paint26_linear_279_5" x1="-102.764" y1="453.851" x2="65.6649" y2="453.851" gradientUnits="userSpaceOnUse">
<stop stop-color="#B28E3C"/>
<stop offset="0.1507" stop-color="#B28E3C"/>
<stop offset="0.4873" stop-color="#C39B30"/>
<stop offset="0.7517" stop-color="#B28E3C"/>
<stop offset="1" stop-color="#C08E21"/>
</linearGradient>
<linearGradient id="paint27_linear_279_5" x1="-nan" y1="-nan" x2="-nan" y2="-nan" gradientUnits="userSpaceOnUse">
<stop stop-color="#B28E3C"/>
<stop offset="0.1507" stop-color="#B28E3C"/>
<stop offset="0.4873" stop-color="#C39B30"/>
<stop offset="0.7517" stop-color="#B28E3C"/>
<stop offset="1" stop-color="#C08E21"/>
</linearGradient>
<linearGradient id="paint28_linear_279_5" x1="1550.35" y1="453.877" x2="1382.01" y2="453.877" gradientUnits="userSpaceOnUse">
<stop stop-color="#B28E3C"/>
<stop offset="0.1507" stop-color="#B28E3C"/>
<stop offset="0.4873" stop-color="#C39B30"/>
<stop offset="0.7517" stop-color="#B28E3C"/>
<stop offset="1" stop-color="#C08E21"/>
</linearGradient>
<linearGradient id="paint29_linear_279_5" x1="1382.01" y1="124.306" x2="1550.35" y2="124.306" gradientUnits="userSpaceOnUse">
<stop stop-color="#B28E3C"/>
<stop offset="0.1507" stop-color="#B28E3C"/>
<stop offset="0.4873" stop-color="#C39B30"/>
<stop offset="0.7517" stop-color="#B28E3C"/>
<stop offset="1" stop-color="#C08E21"/>
</linearGradient>
<linearGradient id="paint30_linear_279_5" x1="-nan" y1="-nan" x2="-nan" y2="-nan" gradientUnits="userSpaceOnUse">
<stop stop-color="#B28E3C"/>
<stop offset="0.1507" stop-color="#B28E3C"/>
<stop offset="0.4873" stop-color="#C39B30"/>
<stop offset="0.7517" stop-color="#B28E3C"/>
<stop offset="1" stop-color="#C08E21"/>
</linearGradient>
<linearGradient id="paint31_linear_279_5" x1="1414.58" y1="105.282" x2="1414.58" y2="40.1558" gradientUnits="userSpaceOnUse">
<stop stop-color="#B28E3C"/>
<stop offset="0.1507" stop-color="#B28E3C"/>
<stop offset="0.4873" stop-color="#C39B30"/>
<stop offset="0.7517" stop-color="#B28E3C"/>
<stop offset="1" stop-color="#C08E21"/>
</linearGradient>
<linearGradient id="paint32_linear_279_5" x1="-nan" y1="-nan" x2="-nan" y2="-nan" gradientUnits="userSpaceOnUse">
<stop stop-color="#B28E3C"/>
<stop offset="0.1507" stop-color="#B28E3C"/>
<stop offset="0.4873" stop-color="#C39B30"/>
<stop offset="0.7517" stop-color="#B28E3C"/>
<stop offset="1" stop-color="#C08E21"/>
</linearGradient>
<linearGradient id="paint33_linear_279_5" x1="1251.94" y1="171.929" x2="1251.94" y2="241.34" gradientUnits="userSpaceOnUse">
<stop stop-color="#B28E3C"/>
<stop offset="0.1507" stop-color="#B28E3C"/>
<stop offset="0.4873" stop-color="#C39B30"/>
<stop offset="0.7517" stop-color="#B28E3C"/>
<stop offset="1" stop-color="#C08E21"/>
</linearGradient>
<linearGradient id="paint34_linear_279_5" x1="1333.41" y1="140.876" x2="1333.41" y2="241.477" gradientUnits="userSpaceOnUse">
<stop stop-color="#B28E3C"/>
<stop offset="0.1507" stop-color="#B28E3C"/>
<stop offset="0.4873" stop-color="#C39B30"/>
<stop offset="0.7517" stop-color="#B28E3C"/>
<stop offset="1" stop-color="#C08E21"/>
</linearGradient>
<linearGradient id="paint35_linear_279_5" x1="1385.44" y1="223.154" x2="1217.14" y2="223.154" gradientUnits="userSpaceOnUse">
<stop stop-color="#B28E3C"/>
<stop offset="0.1507" stop-color="#B28E3C"/>
<stop offset="0.4873" stop-color="#C39B30"/>
<stop offset="0.7517" stop-color="#B28E3C"/>
<stop offset="1" stop-color="#C08E21"/>
</linearGradient>
<linearGradient id="paint36_linear_279_5" x1="-nan" y1="-nan" x2="-nan" y2="-nan" gradientUnits="userSpaceOnUse">
<stop stop-color="#B28E3C"/>
<stop offset="0.1507" stop-color="#B28E3C"/>
<stop offset="0.4873" stop-color="#C39B30"/>
<stop offset="0.7517" stop-color="#B28E3C"/>
<stop offset="1" stop-color="#C08E21"/>
</linearGradient>
<linearGradient id="paint37_linear_279_5" x1="1282.92" y1="453.686" x2="1286.56" y2="453.686" gradientUnits="userSpaceOnUse">
<stop stop-color="#B28E3C"/>
<stop offset="0.1507" stop-color="#B28E3C"/>
<stop offset="0.4873" stop-color="#C39B30"/>
<stop offset="0.7517" stop-color="#B28E3C"/>
<stop offset="1" stop-color="#C08E21"/>
</linearGradient>
<linearGradient id="paint38_linear_279_5" x1="1315.91" y1="503.158" x2="1385.34" y2="503.158" gradientUnits="userSpaceOnUse">
<stop stop-color="#B28E3C"/>
<stop offset="0.1507" stop-color="#B28E3C"/>
<stop offset="0.4873" stop-color="#C39B30"/>
<stop offset="0.7517" stop-color="#B28E3C"/>
<stop offset="1" stop-color="#C08E21"/>
</linearGradient>
<linearGradient id="paint39_linear_279_5" x1="1283.05" y1="421.696" x2="1383.61" y2="421.696" gradientUnits="userSpaceOnUse">
<stop stop-color="#B28E3C"/>
<stop offset="0.1507" stop-color="#B28E3C"/>
<stop offset="0.4873" stop-color="#C39B30"/>
<stop offset="0.7517" stop-color="#B28E3C"/>
<stop offset="1" stop-color="#C08E21"/>
</linearGradient>
<linearGradient id="paint40_linear_279_5" x1="1385.53" y1="453.851" x2="1217.1" y2="453.728" gradientUnits="userSpaceOnUse">
<stop stop-color="#B28E3C"/>
<stop offset="0.1507" stop-color="#B28E3C"/>
<stop offset="0.4873" stop-color="#C39B30"/>
<stop offset="0.7517" stop-color="#B28E3C"/>
<stop offset="1" stop-color="#C08E21"/>
</linearGradient>
<linearGradient id="paint41_linear_279_5" x1="-nan" y1="-nan" x2="-nan" y2="-nan" gradientUnits="userSpaceOnUse">
<stop stop-color="#B28E3C"/>
<stop offset="0.1507" stop-color="#B28E3C"/>
<stop offset="0.4873" stop-color="#C39B30"/>
<stop offset="0.7517" stop-color="#B28E3C"/>
<stop offset="1" stop-color="#C08E21"/>
</linearGradient>
<linearGradient id="paint42_linear_279_5" x1="1382.01" y1="289.05" x2="1550.44" y2="289.05" gradientUnits="userSpaceOnUse">
<stop stop-color="#B28E3C"/>
<stop offset="0.1507" stop-color="#B28E3C"/>
<stop offset="0.4873" stop-color="#C39B30"/>
<stop offset="0.7517" stop-color="#B28E3C"/>
<stop offset="1" stop-color="#C08E21"/>
</linearGradient>
<linearGradient id="paint43_linear_279_5" x1="1382.13" y1="248.711" x2="1550.44" y2="248.711" gradientUnits="userSpaceOnUse">
<stop stop-color="#B28E3C"/>
<stop offset="0.1507" stop-color="#B28E3C"/>
<stop offset="0.4873" stop-color="#C39B30"/>
<stop offset="0.7517" stop-color="#B28E3C"/>
<stop offset="1" stop-color="#C08E21"/>
</linearGradient>
<linearGradient id="paint44_linear_279_5" x1="1466.49" y1="867.596" x2="1466.74" y2="534.464" gradientUnits="userSpaceOnUse">
<stop stop-color="#B28E3C"/>
<stop offset="0.1507" stop-color="#B28E3C"/>
<stop offset="0.4873" stop-color="#C39B30"/>
<stop offset="0.7517" stop-color="#B28E3C"/>
<stop offset="1" stop-color="#C08E21"/>
</linearGradient>
<linearGradient id="paint45_linear_279_5" x1="1466.63" y1="600.425" x2="1466.63" y2="684.617" gradientUnits="userSpaceOnUse">
<stop stop-color="#B28E3C"/>
<stop offset="0.1507" stop-color="#B28E3C"/>
<stop offset="0.4873" stop-color="#C39B30"/>
<stop offset="0.7517" stop-color="#B28E3C"/>
<stop offset="1" stop-color="#C08E21"/>
</linearGradient>
<linearGradient id="paint46_linear_279_5" x1="1468.37" y1="742.218" x2="1382.4" y2="742.155" gradientUnits="userSpaceOnUse">
<stop stop-color="#B28E3C"/>
<stop offset="0.1507" stop-color="#B28E3C"/>
<stop offset="0.4873" stop-color="#C39B30"/>
<stop offset="0.7517" stop-color="#B28E3C"/>
<stop offset="1" stop-color="#C08E21"/>
</linearGradient>
<linearGradient id="paint47_linear_279_5" x1="1466.55" y1="699.728" x2="1466.55" y2="867.079" gradientUnits="userSpaceOnUse">
<stop stop-color="#B28E3C"/>
<stop offset="0.1507" stop-color="#B28E3C"/>
<stop offset="0.4873" stop-color="#C39B30"/>
<stop offset="0.7517" stop-color="#B28E3C"/>
<stop offset="1" stop-color="#C08E21"/>
</linearGradient>
<linearGradient id="paint48_linear_279_5" x1="-nan" y1="-nan" x2="-nan" y2="-nan" gradientUnits="userSpaceOnUse">
<stop stop-color="#B28E3C"/>
<stop offset="0.1507" stop-color="#B28E3C"/>
<stop offset="0.4873" stop-color="#C39B30"/>
<stop offset="0.7517" stop-color="#B28E3C"/>
<stop offset="1" stop-color="#C08E21"/>
</linearGradient>
<linearGradient id="paint49_linear_279_5" x1="-nan" y1="-nan" x2="-nan" y2="-nan" gradientUnits="userSpaceOnUse">
<stop stop-color="#B28E3C"/>
<stop offset="0.1507" stop-color="#B28E3C"/>
<stop offset="0.4873" stop-color="#C39B30"/>
<stop offset="0.7517" stop-color="#B28E3C"/>
<stop offset="1" stop-color="#C08E21"/>
</linearGradient>
<linearGradient id="paint50_linear_279_5" x1="-nan" y1="-nan" x2="-nan" y2="-nan" gradientUnits="userSpaceOnUse">
<stop stop-color="#B28E3C"/>
<stop offset="0.1507" stop-color="#B28E3C"/>
<stop offset="0.4873" stop-color="#C39B30"/>
<stop offset="0.7517" stop-color="#B28E3C"/>
<stop offset="1" stop-color="#C08E21"/>
</linearGradient>
<linearGradient id="paint51_linear_279_5" x1="228.887" y1="347.08" x2="1218.75" y2="347.08" gradientUnits="userSpaceOnUse">
<stop stop-color="#B28E3C"/>
<stop offset="0.1507" stop-color="#B28E3C"/>
<stop offset="0.4873" stop-color="#C39B30"/>
<stop offset="0.7517" stop-color="#B28E3C"/>
<stop offset="1" stop-color="#C08E21"/>
</linearGradient>
<linearGradient id="paint52_linear_279_5" x1="62.4162" y1="25.3059" x2="230.76" y2="25.3059" gradientUnits="userSpaceOnUse">
<stop stop-color="#B28E3C"/>
<stop offset="0.1507" stop-color="#B28E3C"/>
<stop offset="0.4873" stop-color="#C39B30"/>
<stop offset="0.7517" stop-color="#B28E3C"/>
<stop offset="1" stop-color="#C08E21"/>
</linearGradient>
<linearGradient id="paint53_linear_279_5" x1="-nan" y1="-nan" x2="-nan" y2="-nan" gradientUnits="userSpaceOnUse">
<stop stop-color="#B28E3C"/>
<stop offset="0.1507" stop-color="#B28E3C"/>
<stop offset="0.4873" stop-color="#C39B30"/>
<stop offset="0.7517" stop-color="#B28E3C"/>
<stop offset="1" stop-color="#C08E21"/>
</linearGradient>
<linearGradient id="paint54_linear_279_5" x1="208.284" y1="41.7871" x2="208.284" y2="-57.0889" gradientUnits="userSpaceOnUse">
<stop stop-color="#B28E3C"/>
<stop offset="0.1507" stop-color="#B28E3C"/>
<stop offset="0.4873" stop-color="#C39B30"/>
<stop offset="0.7517" stop-color="#B28E3C"/>
<stop offset="1" stop-color="#C08E21"/>
</linearGradient>
<linearGradient id="paint55_linear_279_5" x1="-nan" y1="-nan" x2="-nan" y2="-nan" gradientUnits="userSpaceOnUse">
<stop stop-color="#B28E3C"/>
<stop offset="0.1507" stop-color="#B28E3C"/>
<stop offset="0.4873" stop-color="#C39B30"/>
<stop offset="0.7517" stop-color="#B28E3C"/>
<stop offset="1" stop-color="#C08E21"/>
</linearGradient>
<linearGradient id="paint56_linear_279_5" x1="-nan" y1="-nan" x2="-nan" y2="-nan" gradientUnits="userSpaceOnUse">
<stop stop-color="#B28E3C"/>
<stop offset="0.1507" stop-color="#B28E3C"/>
<stop offset="0.4873" stop-color="#C39B30"/>
<stop offset="0.7517" stop-color="#B28E3C"/>
<stop offset="1" stop-color="#C08E21"/>
</linearGradient>
<linearGradient id="paint57_linear_279_5" x1="-nan" y1="-nan" x2="-nan" y2="-nan" gradientUnits="userSpaceOnUse">
<stop stop-color="#B28E3C"/>
<stop offset="0.1507" stop-color="#B28E3C"/>
<stop offset="0.4873" stop-color="#C39B30"/>
<stop offset="0.7517" stop-color="#B28E3C"/>
<stop offset="1" stop-color="#C08E21"/>
</linearGradient>
<linearGradient id="paint58_linear_279_5" x1="-nan" y1="-nan" x2="-nan" y2="-nan" gradientUnits="userSpaceOnUse">
<stop stop-color="#B28E3C"/>
<stop offset="0.1507" stop-color="#B28E3C"/>
<stop offset="0.4873" stop-color="#C39B30"/>
<stop offset="0.7517" stop-color="#B28E3C"/>
<stop offset="1" stop-color="#C08E21"/>
</linearGradient>
<linearGradient id="paint59_linear_279_5" x1="94.988" y1="6.28227" x2="94.988" y2="-58.8442" gradientUnits="userSpaceOnUse">
<stop stop-color="#B28E3C"/>
<stop offset="0.1507" stop-color="#B28E3C"/>
<stop offset="0.4873" stop-color="#C39B30"/>
<stop offset="0.7517" stop-color="#B28E3C"/>
<stop offset="1" stop-color="#C08E21"/>
</linearGradient>
</defs>
</svg>
